<?xml version="1.0" encoding="UTF-8" standalone="no"?>
<!DOCTYPE svg PUBLIC "-//W3C//DTD SVG 1.1//EN"
 "http://www.w3.org/Graphics/SVG/1.1/DTD/svg11.dtd">
<!-- Generated by graphviz version 2.38.0 (20140413.2041)
 -->
<!-- Title: Tree Pages: 1 -->
<svg width="2475pt" height="685pt"
 viewBox="0.00 0.00 2475.00 685.00" xmlns="http://www.w3.org/2000/svg" xmlns:xlink="http://www.w3.org/1999/xlink">
<g id="graph0" class="graph" transform="scale(1 1) rotate(0) translate(4 681)">
<title>Tree</title>
<polygon fill="white" stroke="none" points="-4,4 -4,-681 2471,-681 2471,4 -4,4"/>
<!-- 0 -->
<g id="node1" class="node"><title>0</title>
<polygon fill="none" stroke="black" points="1613.5,-677 1470.5,-677 1470.5,-609 1613.5,-609 1613.5,-677"/>
<text text-anchor="middle" x="1542" y="-661.8" font-family="Times,serif" font-size="14.00">Diagnosed_Yes &lt;= 0.5</text>
<text text-anchor="middle" x="1542" y="-646.8" font-family="Times,serif" font-size="14.00">gini = 0.3939</text>
<text text-anchor="middle" x="1542" y="-631.8" font-family="Times,serif" font-size="14.00">samples = 356</text>
<text text-anchor="middle" x="1542" y="-616.8" font-family="Times,serif" font-size="14.00">value = [260, 96]</text>
</g>
<!-- 1 -->
<g id="node2" class="node"><title>1</title>
<polygon fill="none" stroke="black" points="1535.5,-573 1340.5,-573 1340.5,-505 1535.5,-505 1535.5,-573"/>
<text text-anchor="middle" x="1438" y="-557.8" font-family="Times,serif" font-size="14.00">NegMental_Yes, they do &lt;= 0.5</text>
<text text-anchor="middle" x="1438" y="-542.8" font-family="Times,serif" font-size="14.00">gini = 0.2476</text>
<text text-anchor="middle" x="1438" y="-527.8" font-family="Times,serif" font-size="14.00">samples = 297</text>
<text text-anchor="middle" x="1438" y="-512.8" font-family="Times,serif" font-size="14.00">value = [254, 43]</text>
</g>
<!-- 0&#45;&gt;1 -->
<g id="edge1" class="edge"><title>0&#45;&gt;1</title>
<path fill="none" stroke="black" d="M1508.23,-608.884C1498.97,-599.798 1488.82,-589.845 1479.19,-580.4"/>
<polygon fill="black" stroke="black" points="1481.54,-577.803 1471.95,-573.299 1476.64,-582.8 1481.54,-577.803"/>
<text text-anchor="middle" x="1472.19" y="-594.598" font-family="Times,serif" font-size="14.00">True</text>
</g>
<!-- 34 -->
<g id="node35" class="node"><title>34</title>
<polygon fill="none" stroke="black" points="1726,-573 1568,-573 1568,-505 1726,-505 1726,-573"/>
<text text-anchor="middle" x="1647" y="-557.8" font-family="Times,serif" font-size="14.00">ResourcesBen_No &lt;= 0.5</text>
<text text-anchor="middle" x="1647" y="-542.8" font-family="Times,serif" font-size="14.00">gini = 0.1827</text>
<text text-anchor="middle" x="1647" y="-527.8" font-family="Times,serif" font-size="14.00">samples = 59</text>
<text text-anchor="middle" x="1647" y="-512.8" font-family="Times,serif" font-size="14.00">value = [6, 53]</text>
</g>
<!-- 0&#45;&gt;34 -->
<g id="edge34" class="edge"><title>0&#45;&gt;34</title>
<path fill="none" stroke="black" d="M1576.09,-608.884C1585.44,-599.798 1595.69,-589.845 1605.41,-580.4"/>
<polygon fill="black" stroke="black" points="1607.99,-582.778 1612.72,-573.299 1603.11,-577.757 1607.99,-582.778"/>
<text text-anchor="middle" x="1612.36" y="-594.597" font-family="Times,serif" font-size="14.00">False</text>
</g>
<!-- 2 -->
<g id="node3" class="node"><title>2</title>
<polygon fill="none" stroke="black" points="1312,-469 1140,-469 1140,-401 1312,-401 1312,-469"/>
<text text-anchor="middle" x="1226" y="-453.8" font-family="Times,serif" font-size="14.00">MentalInterview_No &lt;= 0.5</text>
<text text-anchor="middle" x="1226" y="-438.8" font-family="Times,serif" font-size="14.00">gini = 0.2393</text>
<text text-anchor="middle" x="1226" y="-423.8" font-family="Times,serif" font-size="14.00">samples = 295</text>
<text text-anchor="middle" x="1226" y="-408.8" font-family="Times,serif" font-size="14.00">value = [254, 41]</text>
</g>
<!-- 1&#45;&gt;2 -->
<g id="edge2" class="edge"><title>1&#45;&gt;2</title>
<path fill="none" stroke="black" d="M1369.17,-504.884C1348.33,-494.856 1325.29,-483.773 1303.9,-473.482"/>
<polygon fill="black" stroke="black" points="1305.38,-470.306 1294.85,-469.125 1302.34,-476.614 1305.38,-470.306"/>
</g>
<!-- 33 -->
<g id="node34" class="node"><title>33</title>
<polygon fill="none" stroke="black" points="1484,-461.5 1392,-461.5 1392,-408.5 1484,-408.5 1484,-461.5"/>
<text text-anchor="middle" x="1438" y="-446.3" font-family="Times,serif" font-size="14.00">gini = 0.0</text>
<text text-anchor="middle" x="1438" y="-431.3" font-family="Times,serif" font-size="14.00">samples = 2</text>
<text text-anchor="middle" x="1438" y="-416.3" font-family="Times,serif" font-size="14.00">value = [0, 2]</text>
</g>
<!-- 1&#45;&gt;33 -->
<g id="edge33" class="edge"><title>1&#45;&gt;33</title>
<path fill="none" stroke="black" d="M1438,-504.884C1438,-494.326 1438,-482.597 1438,-471.854"/>
<polygon fill="black" stroke="black" points="1441.5,-471.52 1438,-461.52 1434.5,-471.52 1441.5,-471.52"/>
</g>
<!-- 3 -->
<g id="node4" class="node"><title>3</title>
<polygon fill="none" stroke="black" points="779.5,-365 608.5,-365 608.5,-297 779.5,-297 779.5,-365"/>
<text text-anchor="middle" x="694" y="-349.8" font-family="Times,serif" font-size="14.00">MentalSeriously_No &lt;= 0.5</text>
<text text-anchor="middle" x="694" y="-334.8" font-family="Times,serif" font-size="14.00">gini = 0.1653</text>
<text text-anchor="middle" x="694" y="-319.8" font-family="Times,serif" font-size="14.00">samples = 143</text>
<text text-anchor="middle" x="694" y="-304.8" font-family="Times,serif" font-size="14.00">value = [130, 13]</text>
</g>
<!-- 2&#45;&gt;3 -->
<g id="edge3" class="edge"><title>2&#45;&gt;3</title>
<path fill="none" stroke="black" d="M1139.93,-417.499C1043.98,-399.101 889.214,-369.428 789.569,-350.323"/>
<polygon fill="black" stroke="black" points="789.982,-346.839 779.502,-348.393 788.664,-353.714 789.982,-346.839"/>
</g>
<!-- 18 -->
<g id="node19" class="node"><title>18</title>
<polygon fill="none" stroke="black" points="1303,-365 1149,-365 1149,-297 1303,-297 1303,-365"/>
<text text-anchor="middle" x="1226" y="-349.8" font-family="Times,serif" font-size="14.00">PhyInterview_No &lt;= 0.5</text>
<text text-anchor="middle" x="1226" y="-334.8" font-family="Times,serif" font-size="14.00">gini = 0.3006</text>
<text text-anchor="middle" x="1226" y="-319.8" font-family="Times,serif" font-size="14.00">samples = 152</text>
<text text-anchor="middle" x="1226" y="-304.8" font-family="Times,serif" font-size="14.00">value = [124, 28]</text>
</g>
<!-- 2&#45;&gt;18 -->
<g id="edge18" class="edge"><title>2&#45;&gt;18</title>
<path fill="none" stroke="black" d="M1226,-400.884C1226,-392.778 1226,-383.982 1226,-375.472"/>
<polygon fill="black" stroke="black" points="1229.5,-375.299 1226,-365.299 1222.5,-375.299 1229.5,-375.299"/>
</g>
<!-- 4 -->
<g id="node5" class="node"><title>4</title>
<polygon fill="none" stroke="black" points="446,-261 306,-261 306,-193 446,-193 446,-261"/>
<text text-anchor="middle" x="376" y="-245.8" font-family="Times,serif" font-size="14.00">Remote_Never &lt;= 0.5</text>
<text text-anchor="middle" x="376" y="-230.8" font-family="Times,serif" font-size="14.00">gini = 0.109</text>
<text text-anchor="middle" x="376" y="-215.8" font-family="Times,serif" font-size="14.00">samples = 121</text>
<text text-anchor="middle" x="376" y="-200.8" font-family="Times,serif" font-size="14.00">value = [114, 7]</text>
</g>
<!-- 3&#45;&gt;4 -->
<g id="edge4" class="edge"><title>3&#45;&gt;4</title>
<path fill="none" stroke="black" d="M608.364,-302.532C560.963,-287.328 502.42,-268.55 455.956,-253.646"/>
<polygon fill="black" stroke="black" points="456.824,-250.249 446.232,-250.527 454.686,-256.914 456.824,-250.249"/>
</g>
<!-- 11 -->
<g id="node12" class="node"><title>11</title>
<polygon fill="none" stroke="black" points="786.5,-261 601.5,-261 601.5,-193 786.5,-193 786.5,-261"/>
<text text-anchor="middle" x="694" y="-245.8" font-family="Times,serif" font-size="14.00">IdentifyMental_Maybe &lt;= 0.5</text>
<text text-anchor="middle" x="694" y="-230.8" font-family="Times,serif" font-size="14.00">gini = 0.3967</text>
<text text-anchor="middle" x="694" y="-215.8" font-family="Times,serif" font-size="14.00">samples = 22</text>
<text text-anchor="middle" x="694" y="-200.8" font-family="Times,serif" font-size="14.00">value = [16, 6]</text>
</g>
<!-- 3&#45;&gt;11 -->
<g id="edge11" class="edge"><title>3&#45;&gt;11</title>
<path fill="none" stroke="black" d="M694,-296.884C694,-288.778 694,-279.982 694,-271.472"/>
<polygon fill="black" stroke="black" points="697.5,-271.299 694,-261.299 690.5,-271.299 697.5,-271.299"/>
</g>
<!-- 5 -->
<g id="node6" class="node"><title>5</title>
<polygon fill="none" stroke="black" points="260.5,-157 69.5,-157 69.5,-89 260.5,-89 260.5,-157"/>
<text text-anchor="middle" x="165" y="-141.8" font-family="Times,serif" font-size="14.00">MentalLeave_Very easy &lt;= 0.5</text>
<text text-anchor="middle" x="165" y="-126.8" font-family="Times,serif" font-size="14.00">gini = 0.0618</text>
<text text-anchor="middle" x="165" y="-111.8" font-family="Times,serif" font-size="14.00">samples = 94</text>
<text text-anchor="middle" x="165" y="-96.8" font-family="Times,serif" font-size="14.00">value = [91, 3]</text>
</g>
<!-- 4&#45;&gt;5 -->
<g id="edge5" class="edge"><title>4&#45;&gt;5</title>
<path fill="none" stroke="black" d="M307.494,-192.884C286.752,-182.856 263.825,-171.773 242.535,-161.482"/>
<polygon fill="black" stroke="black" points="244.049,-158.326 233.523,-157.125 241.003,-164.628 244.049,-158.326"/>
</g>
<!-- 8 -->
<g id="node9" class="node"><title>8</title>
<polygon fill="none" stroke="black" points="455,-157 297,-157 297,-89 455,-89 455,-157"/>
<text text-anchor="middle" x="376" y="-141.8" font-family="Times,serif" font-size="14.00">PhyInterview_Yes &lt;= 0.5</text>
<text text-anchor="middle" x="376" y="-126.8" font-family="Times,serif" font-size="14.00">gini = 0.2524</text>
<text text-anchor="middle" x="376" y="-111.8" font-family="Times,serif" font-size="14.00">samples = 27</text>
<text text-anchor="middle" x="376" y="-96.8" font-family="Times,serif" font-size="14.00">value = [23, 4]</text>
</g>
<!-- 4&#45;&gt;8 -->
<g id="edge8" class="edge"><title>4&#45;&gt;8</title>
<path fill="none" stroke="black" d="M376,-192.884C376,-184.778 376,-175.982 376,-167.472"/>
<polygon fill="black" stroke="black" points="379.5,-167.299 376,-157.299 372.5,-167.299 379.5,-167.299"/>
</g>
<!-- 6 -->
<g id="node7" class="node"><title>6</title>
<polygon fill="none" stroke="black" points="98,-53 7.10543e-15,-53 7.10543e-15,-0 98,-0 98,-53"/>
<text text-anchor="middle" x="49" y="-37.8" font-family="Times,serif" font-size="14.00">gini = 0.0</text>
<text text-anchor="middle" x="49" y="-22.8" font-family="Times,serif" font-size="14.00">samples = 54</text>
<text text-anchor="middle" x="49" y="-7.8" font-family="Times,serif" font-size="14.00">value = [54, 0]</text>
</g>
<!-- 5&#45;&gt;6 -->
<g id="edge6" class="edge"><title>5&#45;&gt;6</title>
<path fill="none" stroke="black" d="M124.429,-88.9485C112.75,-79.4346 100.033,-69.074 88.4247,-59.6175"/>
<polygon fill="black" stroke="black" points="90.5557,-56.8392 80.5921,-53.2367 86.1345,-62.2663 90.5557,-56.8392"/>
</g>
<!-- 7 -->
<g id="node8" class="node"><title>7</title>
<polygon fill="none" stroke="black" points="214,-53 116,-53 116,-0 214,-0 214,-53"/>
<text text-anchor="middle" x="165" y="-37.8" font-family="Times,serif" font-size="14.00">gini = 0.1388</text>
<text text-anchor="middle" x="165" y="-22.8" font-family="Times,serif" font-size="14.00">samples = 40</text>
<text text-anchor="middle" x="165" y="-7.8" font-family="Times,serif" font-size="14.00">value = [37, 3]</text>
</g>
<!-- 5&#45;&gt;7 -->
<g id="edge7" class="edge"><title>5&#45;&gt;7</title>
<path fill="none" stroke="black" d="M165,-88.9485C165,-80.7153 165,-71.848 165,-63.4814"/>
<polygon fill="black" stroke="black" points="168.5,-63.2367 165,-53.2367 161.5,-63.2367 168.5,-63.2367"/>
</g>
<!-- 9 -->
<g id="node10" class="node"><title>9</title>
<polygon fill="none" stroke="black" points="330,-53 232,-53 232,-0 330,-0 330,-53"/>
<text text-anchor="middle" x="281" y="-37.8" font-family="Times,serif" font-size="14.00">gini = 0.0</text>
<text text-anchor="middle" x="281" y="-22.8" font-family="Times,serif" font-size="14.00">samples = 19</text>
<text text-anchor="middle" x="281" y="-7.8" font-family="Times,serif" font-size="14.00">value = [19, 0]</text>
</g>
<!-- 8&#45;&gt;9 -->
<g id="edge9" class="edge"><title>8&#45;&gt;9</title>
<path fill="none" stroke="black" d="M342.774,-88.9485C333.485,-79.709 323.394,-69.671 314.112,-60.4381"/>
<polygon fill="black" stroke="black" points="316.431,-57.8077 306.873,-53.2367 311.494,-62.7705 316.431,-57.8077"/>
</g>
<!-- 10 -->
<g id="node11" class="node"><title>10</title>
<polygon fill="none" stroke="black" points="440,-53 348,-53 348,-0 440,-0 440,-53"/>
<text text-anchor="middle" x="394" y="-37.8" font-family="Times,serif" font-size="14.00">gini = 0.5</text>
<text text-anchor="middle" x="394" y="-22.8" font-family="Times,serif" font-size="14.00">samples = 8</text>
<text text-anchor="middle" x="394" y="-7.8" font-family="Times,serif" font-size="14.00">value = [4, 4]</text>
</g>
<!-- 8&#45;&gt;10 -->
<g id="edge10" class="edge"><title>8&#45;&gt;10</title>
<path fill="none" stroke="black" d="M382.296,-88.9485C383.881,-80.6238 385.59,-71.6509 387.199,-63.2027"/>
<polygon fill="black" stroke="black" points="390.665,-63.715 389.098,-53.2367 383.788,-62.4052 390.665,-63.715"/>
</g>
<!-- 12 -->
<g id="node13" class="node"><title>12</title>
<polygon fill="none" stroke="black" points="688,-157 494,-157 494,-89 688,-89 688,-157"/>
<text text-anchor="middle" x="591" y="-141.8" font-family="Times,serif" font-size="14.00">MentalInterview_Maybe &lt;= 0.5</text>
<text text-anchor="middle" x="591" y="-126.8" font-family="Times,serif" font-size="14.00">gini = 0.1528</text>
<text text-anchor="middle" x="591" y="-111.8" font-family="Times,serif" font-size="14.00">samples = 12</text>
<text text-anchor="middle" x="591" y="-96.8" font-family="Times,serif" font-size="14.00">value = [11, 1]</text>
</g>
<!-- 11&#45;&gt;12 -->
<g id="edge12" class="edge"><title>11&#45;&gt;12</title>
<path fill="none" stroke="black" d="M660.559,-192.884C651.384,-183.798 641.334,-173.845 631.796,-164.4"/>
<polygon fill="black" stroke="black" points="634.194,-161.849 624.626,-157.299 629.269,-166.823 634.194,-161.849"/>
</g>
<!-- 15 -->
<g id="node16" class="node"><title>15</title>
<polygon fill="none" stroke="black" points="888,-157 706,-157 706,-89 888,-89 888,-157"/>
<text text-anchor="middle" x="797" y="-141.8" font-family="Times,serif" font-size="14.00">DiscMentalCo_Maybe &lt;= 0.5</text>
<text text-anchor="middle" x="797" y="-126.8" font-family="Times,serif" font-size="14.00">gini = 0.5</text>
<text text-anchor="middle" x="797" y="-111.8" font-family="Times,serif" font-size="14.00">samples = 10</text>
<text text-anchor="middle" x="797" y="-96.8" font-family="Times,serif" font-size="14.00">value = [5, 5]</text>
</g>
<!-- 11&#45;&gt;15 -->
<g id="edge15" class="edge"><title>11&#45;&gt;15</title>
<path fill="none" stroke="black" d="M727.441,-192.884C736.616,-183.798 746.666,-173.845 756.204,-164.4"/>
<polygon fill="black" stroke="black" points="758.731,-166.823 763.374,-157.299 753.806,-161.849 758.731,-166.823"/>
</g>
<!-- 13 -->
<g id="node14" class="node"><title>13</title>
<polygon fill="none" stroke="black" points="550,-53 458,-53 458,-0 550,-0 550,-53"/>
<text text-anchor="middle" x="504" y="-37.8" font-family="Times,serif" font-size="14.00">gini = 0.5</text>
<text text-anchor="middle" x="504" y="-22.8" font-family="Times,serif" font-size="14.00">samples = 2</text>
<text text-anchor="middle" x="504" y="-7.8" font-family="Times,serif" font-size="14.00">value = [1, 1]</text>
</g>
<!-- 12&#45;&gt;13 -->
<g id="edge13" class="edge"><title>12&#45;&gt;13</title>
<path fill="none" stroke="black" d="M560.572,-88.9485C552.15,-79.8005 543.007,-69.8697 534.577,-60.7126"/>
<polygon fill="black" stroke="black" points="537.042,-58.2231 527.694,-53.2367 531.892,-62.9643 537.042,-58.2231"/>
</g>
<!-- 14 -->
<g id="node15" class="node"><title>14</title>
<polygon fill="none" stroke="black" points="666,-53 568,-53 568,-0 666,-0 666,-53"/>
<text text-anchor="middle" x="617" y="-37.8" font-family="Times,serif" font-size="14.00">gini = 0.0</text>
<text text-anchor="middle" x="617" y="-22.8" font-family="Times,serif" font-size="14.00">samples = 10</text>
<text text-anchor="middle" x="617" y="-7.8" font-family="Times,serif" font-size="14.00">value = [10, 0]</text>
</g>
<!-- 12&#45;&gt;14 -->
<g id="edge14" class="edge"><title>12&#45;&gt;14</title>
<path fill="none" stroke="black" d="M600.094,-88.9485C602.409,-80.5323 604.907,-71.4536 607.254,-62.9243"/>
<polygon fill="black" stroke="black" points="610.641,-63.8069 609.919,-53.2367 603.892,-61.9499 610.641,-63.8069"/>
</g>
<!-- 16 -->
<g id="node17" class="node"><title>16</title>
<polygon fill="none" stroke="black" points="776,-53 684,-53 684,-0 776,-0 776,-53"/>
<text text-anchor="middle" x="730" y="-37.8" font-family="Times,serif" font-size="14.00">gini = 0.0</text>
<text text-anchor="middle" x="730" y="-22.8" font-family="Times,serif" font-size="14.00">samples = 5</text>
<text text-anchor="middle" x="730" y="-7.8" font-family="Times,serif" font-size="14.00">value = [0, 5]</text>
</g>
<!-- 15&#45;&gt;16 -->
<g id="edge16" class="edge"><title>15&#45;&gt;16</title>
<path fill="none" stroke="black" d="M773.567,-88.9485C767.275,-80.0749 760.462,-70.4648 754.133,-61.5388"/>
<polygon fill="black" stroke="black" points="756.886,-59.3701 748.247,-53.2367 751.176,-63.4188 756.886,-59.3701"/>
</g>
<!-- 17 -->
<g id="node18" class="node"><title>17</title>
<polygon fill="none" stroke="black" points="886,-53 794,-53 794,-0 886,-0 886,-53"/>
<text text-anchor="middle" x="840" y="-37.8" font-family="Times,serif" font-size="14.00">gini = 0.0</text>
<text text-anchor="middle" x="840" y="-22.8" font-family="Times,serif" font-size="14.00">samples = 5</text>
<text text-anchor="middle" x="840" y="-7.8" font-family="Times,serif" font-size="14.00">value = [5, 0]</text>
</g>
<!-- 15&#45;&gt;17 -->
<g id="edge17" class="edge"><title>15&#45;&gt;17</title>
<path fill="none" stroke="black" d="M812.039,-88.9485C815.952,-80.3494 820.18,-71.0586 824.134,-62.3689"/>
<polygon fill="black" stroke="black" points="827.333,-63.7883 828.289,-53.2367 820.962,-60.8891 827.333,-63.7883"/>
</g>
<!-- 19 -->
<g id="node20" class="node"><title>19</title>
<polygon fill="none" stroke="black" points="1294.5,-261 1129.5,-261 1129.5,-193 1294.5,-193 1294.5,-261"/>
<text text-anchor="middle" x="1212" y="-245.8" font-family="Times,serif" font-size="14.00">DiscMentalCo_Yes &lt;= 0.5</text>
<text text-anchor="middle" x="1212" y="-230.8" font-family="Times,serif" font-size="14.00">gini = 0.3901</text>
<text text-anchor="middle" x="1212" y="-215.8" font-family="Times,serif" font-size="14.00">samples = 64</text>
<text text-anchor="middle" x="1212" y="-200.8" font-family="Times,serif" font-size="14.00">value = [47, 17]</text>
</g>
<!-- 18&#45;&gt;19 -->
<g id="edge19" class="edge"><title>18&#45;&gt;19</title>
<path fill="none" stroke="black" d="M1221.45,-296.884C1220.34,-288.778 1219.13,-279.982 1217.97,-271.472"/>
<polygon fill="black" stroke="black" points="1221.4,-270.731 1216.57,-261.299 1214.46,-271.682 1221.4,-270.731"/>
</g>
<!-- 26 -->
<g id="node27" class="node"><title>26</title>
<polygon fill="none" stroke="black" points="1523.5,-261 1312.5,-261 1312.5,-193 1523.5,-193 1523.5,-261"/>
<text text-anchor="middle" x="1418" y="-245.8" font-family="Times,serif" font-size="14.00">MentalLeave_Very difficult &lt;= 0.5</text>
<text text-anchor="middle" x="1418" y="-230.8" font-family="Times,serif" font-size="14.00">gini = 0.2188</text>
<text text-anchor="middle" x="1418" y="-215.8" font-family="Times,serif" font-size="14.00">samples = 88</text>
<text text-anchor="middle" x="1418" y="-200.8" font-family="Times,serif" font-size="14.00">value = [77, 11]</text>
</g>
<!-- 18&#45;&gt;26 -->
<g id="edge26" class="edge"><title>18&#45;&gt;26</title>
<path fill="none" stroke="black" d="M1288.34,-296.884C1306.96,-286.991 1327.52,-276.07 1346.67,-265.895"/>
<polygon fill="black" stroke="black" points="1348.46,-268.907 1355.65,-261.125 1345.17,-262.725 1348.46,-268.907"/>
</g>
<!-- 20 -->
<g id="node21" class="node"><title>20</title>
<polygon fill="none" stroke="black" points="1117.5,-157 912.5,-157 912.5,-89 1117.5,-89 1117.5,-157"/>
<text text-anchor="middle" x="1015" y="-141.8" font-family="Times,serif" font-size="14.00">MentalLeave_I don&#39;t know &lt;= 0.5</text>
<text text-anchor="middle" x="1015" y="-126.8" font-family="Times,serif" font-size="14.00">gini = 0.3367</text>
<text text-anchor="middle" x="1015" y="-111.8" font-family="Times,serif" font-size="14.00">samples = 56</text>
<text text-anchor="middle" x="1015" y="-96.8" font-family="Times,serif" font-size="14.00">value = [44, 12]</text>
</g>
<!-- 19&#45;&gt;20 -->
<g id="edge20" class="edge"><title>19&#45;&gt;20</title>
<path fill="none" stroke="black" d="M1148.04,-192.884C1128.85,-182.946 1107.65,-171.971 1087.92,-161.757"/>
<polygon fill="black" stroke="black" points="1089.47,-158.615 1078.98,-157.125 1086.25,-164.831 1089.47,-158.615"/>
</g>
<!-- 23 -->
<g id="node24" class="node"><title>23</title>
<polygon fill="none" stroke="black" points="1293,-157 1135,-157 1135,-89 1293,-89 1293,-157"/>
<text text-anchor="middle" x="1214" y="-141.8" font-family="Times,serif" font-size="14.00">ResourcesBen_No &lt;= 0.5</text>
<text text-anchor="middle" x="1214" y="-126.8" font-family="Times,serif" font-size="14.00">gini = 0.4688</text>
<text text-anchor="middle" x="1214" y="-111.8" font-family="Times,serif" font-size="14.00">samples = 8</text>
<text text-anchor="middle" x="1214" y="-96.8" font-family="Times,serif" font-size="14.00">value = [3, 5]</text>
</g>
<!-- 19&#45;&gt;23 -->
<g id="edge23" class="edge"><title>19&#45;&gt;23</title>
<path fill="none" stroke="black" d="M1212.65,-192.884C1212.81,-184.778 1212.98,-175.982 1213.15,-167.472"/>
<polygon fill="black" stroke="black" points="1216.65,-167.366 1213.35,-157.299 1209.65,-167.229 1216.65,-167.366"/>
</g>
<!-- 21 -->
<g id="node22" class="node"><title>21</title>
<polygon fill="none" stroke="black" points="1009.5,-53 904.5,-53 904.5,-0 1009.5,-0 1009.5,-53"/>
<text text-anchor="middle" x="957" y="-37.8" font-family="Times,serif" font-size="14.00">gini = 0.4114</text>
<text text-anchor="middle" x="957" y="-22.8" font-family="Times,serif" font-size="14.00">samples = 38</text>
<text text-anchor="middle" x="957" y="-7.8" font-family="Times,serif" font-size="14.00">value = [27, 11]</text>
</g>
<!-- 20&#45;&gt;21 -->
<g id="edge21" class="edge"><title>20&#45;&gt;21</title>
<path fill="none" stroke="black" d="M994.714,-88.9485C989.324,-80.1664 983.492,-70.6629 978.061,-61.815"/>
<polygon fill="black" stroke="black" points="981.01,-59.9287 972.796,-53.2367 975.044,-63.5903 981.01,-59.9287"/>
</g>
<!-- 22 -->
<g id="node23" class="node"><title>22</title>
<polygon fill="none" stroke="black" points="1126,-53 1028,-53 1028,-0 1126,-0 1126,-53"/>
<text text-anchor="middle" x="1077" y="-37.8" font-family="Times,serif" font-size="14.00">gini = 0.1049</text>
<text text-anchor="middle" x="1077" y="-22.8" font-family="Times,serif" font-size="14.00">samples = 18</text>
<text text-anchor="middle" x="1077" y="-7.8" font-family="Times,serif" font-size="14.00">value = [17, 1]</text>
</g>
<!-- 20&#45;&gt;22 -->
<g id="edge22" class="edge"><title>20&#45;&gt;22</title>
<path fill="none" stroke="black" d="M1036.68,-88.9485C1042.45,-80.1664 1048.68,-70.6629 1054.49,-61.815"/>
<polygon fill="black" stroke="black" points="1057.56,-63.5178 1060.11,-53.2367 1051.7,-59.6779 1057.56,-63.5178"/>
</g>
<!-- 24 -->
<g id="node25" class="node"><title>24</title>
<polygon fill="none" stroke="black" points="1236,-53 1144,-53 1144,-0 1236,-0 1236,-53"/>
<text text-anchor="middle" x="1190" y="-37.8" font-family="Times,serif" font-size="14.00">gini = 0.0</text>
<text text-anchor="middle" x="1190" y="-22.8" font-family="Times,serif" font-size="14.00">samples = 4</text>
<text text-anchor="middle" x="1190" y="-7.8" font-family="Times,serif" font-size="14.00">value = [0, 4]</text>
</g>
<!-- 23&#45;&gt;24 -->
<g id="edge24" class="edge"><title>23&#45;&gt;24</title>
<path fill="none" stroke="black" d="M1205.61,-88.9485C1203.49,-80.6238 1201.21,-71.6509 1199.07,-63.2027"/>
<polygon fill="black" stroke="black" points="1202.39,-62.0675 1196.54,-53.2367 1195.61,-63.7906 1202.39,-62.0675"/>
</g>
<!-- 25 -->
<g id="node26" class="node"><title>25</title>
<polygon fill="none" stroke="black" points="1346,-53 1254,-53 1254,-0 1346,-0 1346,-53"/>
<text text-anchor="middle" x="1300" y="-37.8" font-family="Times,serif" font-size="14.00">gini = 0.375</text>
<text text-anchor="middle" x="1300" y="-22.8" font-family="Times,serif" font-size="14.00">samples = 4</text>
<text text-anchor="middle" x="1300" y="-7.8" font-family="Times,serif" font-size="14.00">value = [3, 1]</text>
</g>
<!-- 23&#45;&gt;25 -->
<g id="edge25" class="edge"><title>23&#45;&gt;25</title>
<path fill="none" stroke="black" d="M1244.08,-88.9485C1252.4,-79.8005 1261.44,-69.8697 1269.77,-60.7126"/>
<polygon fill="black" stroke="black" points="1272.44,-62.9883 1276.58,-53.2367 1267.26,-58.2769 1272.44,-62.9883"/>
</g>
<!-- 27 -->
<g id="node28" class="node"><title>27</title>
<polygon fill="none" stroke="black" points="1518.5,-157 1313.5,-157 1313.5,-89 1518.5,-89 1518.5,-157"/>
<text text-anchor="middle" x="1416" y="-141.8" font-family="Times,serif" font-size="14.00">MentalLeave_I don&#39;t know &lt;= 0.5</text>
<text text-anchor="middle" x="1416" y="-126.8" font-family="Times,serif" font-size="14.00">gini = 0.178</text>
<text text-anchor="middle" x="1416" y="-111.8" font-family="Times,serif" font-size="14.00">samples = 81</text>
<text text-anchor="middle" x="1416" y="-96.8" font-family="Times,serif" font-size="14.00">value = [73, 8]</text>
</g>
<!-- 26&#45;&gt;27 -->
<g id="edge27" class="edge"><title>26&#45;&gt;27</title>
<path fill="none" stroke="black" d="M1417.35,-192.884C1417.19,-184.778 1417.02,-175.982 1416.85,-167.472"/>
<polygon fill="black" stroke="black" points="1420.35,-167.229 1416.65,-157.299 1413.35,-167.366 1420.35,-167.229"/>
</g>
<!-- 30 -->
<g id="node31" class="node"><title>30</title>
<polygon fill="none" stroke="black" points="1747,-157 1537,-157 1537,-89 1747,-89 1747,-157"/>
<text text-anchor="middle" x="1642" y="-141.8" font-family="Times,serif" font-size="14.00">ResourcesBen_I don&#39;t know &lt;= 0.5</text>
<text text-anchor="middle" x="1642" y="-126.8" font-family="Times,serif" font-size="14.00">gini = 0.4898</text>
<text text-anchor="middle" x="1642" y="-111.8" font-family="Times,serif" font-size="14.00">samples = 7</text>
<text text-anchor="middle" x="1642" y="-96.8" font-family="Times,serif" font-size="14.00">value = [4, 3]</text>
</g>
<!-- 26&#45;&gt;30 -->
<g id="edge30" class="edge"><title>26&#45;&gt;30</title>
<path fill="none" stroke="black" d="M1490.73,-192.884C1512.85,-182.812 1537.3,-171.674 1559.99,-161.344"/>
<polygon fill="black" stroke="black" points="1561.61,-164.454 1569.26,-157.125 1558.7,-158.084 1561.61,-164.454"/>
</g>
<!-- 28 -->
<g id="node29" class="node"><title>28</title>
<polygon fill="none" stroke="black" points="1462,-53 1364,-53 1364,-0 1462,-0 1462,-53"/>
<text text-anchor="middle" x="1413" y="-37.8" font-family="Times,serif" font-size="14.00">gini = 0.1123</text>
<text text-anchor="middle" x="1413" y="-22.8" font-family="Times,serif" font-size="14.00">samples = 67</text>
<text text-anchor="middle" x="1413" y="-7.8" font-family="Times,serif" font-size="14.00">value = [63, 4]</text>
</g>
<!-- 27&#45;&gt;28 -->
<g id="edge28" class="edge"><title>27&#45;&gt;28</title>
<path fill="none" stroke="black" d="M1414.95,-88.9485C1414.69,-80.7153 1414.41,-71.848 1414.14,-63.4814"/>
<polygon fill="black" stroke="black" points="1417.63,-63.1206 1413.82,-53.2367 1410.64,-63.3428 1417.63,-63.1206"/>
</g>
<!-- 29 -->
<g id="node30" class="node"><title>29</title>
<polygon fill="none" stroke="black" points="1578,-53 1480,-53 1480,-0 1578,-0 1578,-53"/>
<text text-anchor="middle" x="1529" y="-37.8" font-family="Times,serif" font-size="14.00">gini = 0.4082</text>
<text text-anchor="middle" x="1529" y="-22.8" font-family="Times,serif" font-size="14.00">samples = 14</text>
<text text-anchor="middle" x="1529" y="-7.8" font-family="Times,serif" font-size="14.00">value = [10, 4]</text>
</g>
<!-- 27&#45;&gt;29 -->
<g id="edge29" class="edge"><title>27&#45;&gt;29</title>
<path fill="none" stroke="black" d="M1455.52,-88.9485C1466.79,-79.526 1479.05,-69.2731 1490.27,-59.8906"/>
<polygon fill="black" stroke="black" points="1492.8,-62.3368 1498.22,-53.2367 1488.31,-56.967 1492.8,-62.3368"/>
</g>
<!-- 31 -->
<g id="node32" class="node"><title>31</title>
<polygon fill="none" stroke="black" points="1688,-53 1596,-53 1596,-0 1688,-0 1688,-53"/>
<text text-anchor="middle" x="1642" y="-37.8" font-family="Times,serif" font-size="14.00">gini = 0.0</text>
<text text-anchor="middle" x="1642" y="-22.8" font-family="Times,serif" font-size="14.00">samples = 4</text>
<text text-anchor="middle" x="1642" y="-7.8" font-family="Times,serif" font-size="14.00">value = [4, 0]</text>
</g>
<!-- 30&#45;&gt;31 -->
<g id="edge31" class="edge"><title>30&#45;&gt;31</title>
<path fill="none" stroke="black" d="M1642,-88.9485C1642,-80.7153 1642,-71.848 1642,-63.4814"/>
<polygon fill="black" stroke="black" points="1645.5,-63.2367 1642,-53.2367 1638.5,-63.2367 1645.5,-63.2367"/>
</g>
<!-- 32 -->
<g id="node33" class="node"><title>32</title>
<polygon fill="none" stroke="black" points="1798,-53 1706,-53 1706,-0 1798,-0 1798,-53"/>
<text text-anchor="middle" x="1752" y="-37.8" font-family="Times,serif" font-size="14.00">gini = 0.0</text>
<text text-anchor="middle" x="1752" y="-22.8" font-family="Times,serif" font-size="14.00">samples = 3</text>
<text text-anchor="middle" x="1752" y="-7.8" font-family="Times,serif" font-size="14.00">value = [0, 3]</text>
</g>
<!-- 30&#45;&gt;32 -->
<g id="edge32" class="edge"><title>30&#45;&gt;32</title>
<path fill="none" stroke="black" d="M1680.47,-88.9485C1691.44,-79.526 1703.38,-69.2731 1714.3,-59.8906"/>
<polygon fill="black" stroke="black" points="1716.74,-62.408 1722.04,-53.2367 1712.18,-57.0983 1716.74,-62.408"/>
</g>
<!-- 35 -->
<g id="node36" class="node"><title>35</title>
<polygon fill="none" stroke="black" points="1767.5,-469 1526.5,-469 1526.5,-401 1767.5,-401 1767.5,-469"/>
<text text-anchor="middle" x="1647" y="-453.8" font-family="Times,serif" font-size="14.00">NegResponse_Yes, I experienced &lt;= 0.5</text>
<text text-anchor="middle" x="1647" y="-438.8" font-family="Times,serif" font-size="14.00">gini = 0.0555</text>
<text text-anchor="middle" x="1647" y="-423.8" font-family="Times,serif" font-size="14.00">samples = 35</text>
<text text-anchor="middle" x="1647" y="-408.8" font-family="Times,serif" font-size="14.00">value = [1, 34]</text>
</g>
<!-- 34&#45;&gt;35 -->
<g id="edge35" class="edge"><title>34&#45;&gt;35</title>
<path fill="none" stroke="black" d="M1647,-504.884C1647,-496.778 1647,-487.982 1647,-479.472"/>
<polygon fill="black" stroke="black" points="1650.5,-479.299 1647,-469.299 1643.5,-479.299 1650.5,-479.299"/>
</g>
<!-- 40 -->
<g id="node41" class="node"><title>40</title>
<polygon fill="none" stroke="black" points="1974,-469 1816,-469 1816,-401 1974,-401 1974,-469"/>
<text text-anchor="middle" x="1895" y="-453.8" font-family="Times,serif" font-size="14.00">PhyInterview_Yes &lt;= 0.5</text>
<text text-anchor="middle" x="1895" y="-438.8" font-family="Times,serif" font-size="14.00">gini = 0.3299</text>
<text text-anchor="middle" x="1895" y="-423.8" font-family="Times,serif" font-size="14.00">samples = 24</text>
<text text-anchor="middle" x="1895" y="-408.8" font-family="Times,serif" font-size="14.00">value = [5, 19]</text>
</g>
<!-- 34&#45;&gt;40 -->
<g id="edge40" class="edge"><title>34&#45;&gt;40</title>
<path fill="none" stroke="black" d="M1726.15,-505.446C1751.65,-494.957 1780.08,-483.265 1806.23,-472.51"/>
<polygon fill="black" stroke="black" points="1807.83,-475.635 1815.75,-468.594 1805.17,-469.161 1807.83,-475.635"/>
</g>
<!-- 36 -->
<g id="node37" class="node"><title>36</title>
<polygon fill="none" stroke="black" points="1573,-357.5 1475,-357.5 1475,-304.5 1573,-304.5 1573,-357.5"/>
<text text-anchor="middle" x="1524" y="-342.3" font-family="Times,serif" font-size="14.00">gini = 0.0</text>
<text text-anchor="middle" x="1524" y="-327.3" font-family="Times,serif" font-size="14.00">samples = 31</text>
<text text-anchor="middle" x="1524" y="-312.3" font-family="Times,serif" font-size="14.00">value = [0, 31]</text>
</g>
<!-- 35&#45;&gt;36 -->
<g id="edge36" class="edge"><title>35&#45;&gt;36</title>
<path fill="none" stroke="black" d="M1607.07,-400.884C1592.87,-389.116 1576.93,-375.894 1562.83,-364.203"/>
<polygon fill="black" stroke="black" points="1564.71,-361.209 1554.77,-357.52 1560.24,-366.597 1564.71,-361.209"/>
</g>
<!-- 37 -->
<g id="node38" class="node"><title>37</title>
<polygon fill="none" stroke="black" points="1785,-365 1591,-365 1591,-297 1785,-297 1785,-365"/>
<text text-anchor="middle" x="1688" y="-349.8" font-family="Times,serif" font-size="14.00">MentalInterview_Maybe &lt;= 0.5</text>
<text text-anchor="middle" x="1688" y="-334.8" font-family="Times,serif" font-size="14.00">gini = 0.375</text>
<text text-anchor="middle" x="1688" y="-319.8" font-family="Times,serif" font-size="14.00">samples = 4</text>
<text text-anchor="middle" x="1688" y="-304.8" font-family="Times,serif" font-size="14.00">value = [1, 3]</text>
</g>
<!-- 35&#45;&gt;37 -->
<g id="edge37" class="edge"><title>35&#45;&gt;37</title>
<path fill="none" stroke="black" d="M1660.31,-400.884C1663.68,-392.511 1667.34,-383.401 1670.86,-374.631"/>
<polygon fill="black" stroke="black" points="1674.13,-375.883 1674.61,-365.299 1667.64,-373.272 1674.13,-375.883"/>
</g>
<!-- 38 -->
<g id="node39" class="node"><title>38</title>
<polygon fill="none" stroke="black" points="1645,-253.5 1553,-253.5 1553,-200.5 1645,-200.5 1645,-253.5"/>
<text text-anchor="middle" x="1599" y="-238.3" font-family="Times,serif" font-size="14.00">gini = 0.0</text>
<text text-anchor="middle" x="1599" y="-223.3" font-family="Times,serif" font-size="14.00">samples = 3</text>
<text text-anchor="middle" x="1599" y="-208.3" font-family="Times,serif" font-size="14.00">value = [0, 3]</text>
</g>
<!-- 37&#45;&gt;38 -->
<g id="edge38" class="edge"><title>37&#45;&gt;38</title>
<path fill="none" stroke="black" d="M1659.1,-296.884C1649.12,-285.446 1637.95,-272.634 1627.96,-261.19"/>
<polygon fill="black" stroke="black" points="1630.48,-258.754 1621.27,-253.52 1625.2,-263.356 1630.48,-258.754"/>
</g>
<!-- 39 -->
<g id="node40" class="node"><title>39</title>
<polygon fill="none" stroke="black" points="1755,-253.5 1663,-253.5 1663,-200.5 1755,-200.5 1755,-253.5"/>
<text text-anchor="middle" x="1709" y="-238.3" font-family="Times,serif" font-size="14.00">gini = 0.0</text>
<text text-anchor="middle" x="1709" y="-223.3" font-family="Times,serif" font-size="14.00">samples = 1</text>
<text text-anchor="middle" x="1709" y="-208.3" font-family="Times,serif" font-size="14.00">value = [1, 0]</text>
</g>
<!-- 37&#45;&gt;39 -->
<g id="edge39" class="edge"><title>37&#45;&gt;39</title>
<path fill="none" stroke="black" d="M1694.82,-296.884C1697.01,-286.216 1699.46,-274.352 1701.69,-263.519"/>
<polygon fill="black" stroke="black" points="1705.16,-264.02 1703.75,-253.52 1698.3,-262.609 1705.16,-264.02"/>
</g>
<!-- 41 -->
<g id="node42" class="node"><title>41</title>
<polygon fill="none" stroke="black" points="1977,-365 1813,-365 1813,-297 1977,-297 1977,-365"/>
<text text-anchor="middle" x="1895" y="-349.8" font-family="Times,serif" font-size="14.00">NegMental_Maybe &lt;= 0.5</text>
<text text-anchor="middle" x="1895" y="-334.8" font-family="Times,serif" font-size="14.00">gini = 0.1975</text>
<text text-anchor="middle" x="1895" y="-319.8" font-family="Times,serif" font-size="14.00">samples = 18</text>
<text text-anchor="middle" x="1895" y="-304.8" font-family="Times,serif" font-size="14.00">value = [2, 16]</text>
</g>
<!-- 40&#45;&gt;41 -->
<g id="edge41" class="edge"><title>40&#45;&gt;41</title>
<path fill="none" stroke="black" d="M1895,-400.884C1895,-392.778 1895,-383.982 1895,-375.472"/>
<polygon fill="black" stroke="black" points="1898.5,-375.299 1895,-365.299 1891.5,-375.299 1898.5,-375.299"/>
</g>
<!-- 48 -->
<g id="node49" class="node"><title>48</title>
<polygon fill="none" stroke="black" points="2307.5,-365 2146.5,-365 2146.5,-297 2307.5,-297 2307.5,-365"/>
<text text-anchor="middle" x="2227" y="-349.8" font-family="Times,serif" font-size="14.00">DiscMentalCo_No &lt;= 0.5</text>
<text text-anchor="middle" x="2227" y="-334.8" font-family="Times,serif" font-size="14.00">gini = 0.5</text>
<text text-anchor="middle" x="2227" y="-319.8" font-family="Times,serif" font-size="14.00">samples = 6</text>
<text text-anchor="middle" x="2227" y="-304.8" font-family="Times,serif" font-size="14.00">value = [3, 3]</text>
</g>
<!-- 40&#45;&gt;48 -->
<g id="edge48" class="edge"><title>40&#45;&gt;48</title>
<path fill="none" stroke="black" d="M1974.1,-409.698C2023.02,-394.669 2085.96,-375.331 2136.81,-359.708"/>
<polygon fill="black" stroke="black" points="2137.96,-363.018 2146.49,-356.735 2135.9,-356.327 2137.96,-363.018"/>
</g>
<!-- 42 -->
<g id="node43" class="node"><title>42</title>
<polygon fill="none" stroke="black" points="1968.5,-261 1783.5,-261 1783.5,-193 1968.5,-193 1968.5,-261"/>
<text text-anchor="middle" x="1876" y="-245.8" font-family="Times,serif" font-size="14.00">IdentifyMental_Maybe &lt;= 0.5</text>
<text text-anchor="middle" x="1876" y="-230.8" font-family="Times,serif" font-size="14.00">gini = 0.32</text>
<text text-anchor="middle" x="1876" y="-215.8" font-family="Times,serif" font-size="14.00">samples = 10</text>
<text text-anchor="middle" x="1876" y="-200.8" font-family="Times,serif" font-size="14.00">value = [2, 8]</text>
</g>
<!-- 41&#45;&gt;42 -->
<g id="edge42" class="edge"><title>41&#45;&gt;42</title>
<path fill="none" stroke="black" d="M1888.83,-296.884C1887.3,-288.689 1885.65,-279.789 1884.05,-271.192"/>
<polygon fill="black" stroke="black" points="1887.47,-270.489 1882.2,-261.299 1880.59,-271.771 1887.47,-270.489"/>
</g>
<!-- 47 -->
<g id="node48" class="node"><title>47</title>
<polygon fill="none" stroke="black" points="2079,-253.5 1987,-253.5 1987,-200.5 2079,-200.5 2079,-253.5"/>
<text text-anchor="middle" x="2033" y="-238.3" font-family="Times,serif" font-size="14.00">gini = 0.0</text>
<text text-anchor="middle" x="2033" y="-223.3" font-family="Times,serif" font-size="14.00">samples = 8</text>
<text text-anchor="middle" x="2033" y="-208.3" font-family="Times,serif" font-size="14.00">value = [0, 8]</text>
</g>
<!-- 41&#45;&gt;47 -->
<g id="edge47" class="edge"><title>41&#45;&gt;47</title>
<path fill="none" stroke="black" d="M1939.8,-296.884C1956.02,-284.896 1974.28,-271.399 1990.32,-259.549"/>
<polygon fill="black" stroke="black" points="1992.51,-262.279 1998.47,-253.52 1988.35,-256.649 1992.51,-262.279"/>
</g>
<!-- 43 -->
<g id="node44" class="node"><title>43</title>
<polygon fill="none" stroke="black" points="1987,-157 1765,-157 1765,-89 1987,-89 1987,-157"/>
<text text-anchor="middle" x="1876" y="-141.8" font-family="Times,serif" font-size="14.00">MentalLeave_Somewhat easy &lt;= 0.5</text>
<text text-anchor="middle" x="1876" y="-126.8" font-family="Times,serif" font-size="14.00">gini = 0.1975</text>
<text text-anchor="middle" x="1876" y="-111.8" font-family="Times,serif" font-size="14.00">samples = 9</text>
<text text-anchor="middle" x="1876" y="-96.8" font-family="Times,serif" font-size="14.00">value = [1, 8]</text>
</g>
<!-- 42&#45;&gt;43 -->
<g id="edge43" class="edge"><title>42&#45;&gt;43</title>
<path fill="none" stroke="black" d="M1876,-192.884C1876,-184.778 1876,-175.982 1876,-167.472"/>
<polygon fill="black" stroke="black" points="1879.5,-167.299 1876,-157.299 1872.5,-167.299 1879.5,-167.299"/>
</g>
<!-- 46 -->
<g id="node47" class="node"><title>46</title>
<polygon fill="none" stroke="black" points="2097,-149.5 2005,-149.5 2005,-96.5 2097,-96.5 2097,-149.5"/>
<text text-anchor="middle" x="2051" y="-134.3" font-family="Times,serif" font-size="14.00">gini = 0.0</text>
<text text-anchor="middle" x="2051" y="-119.3" font-family="Times,serif" font-size="14.00">samples = 1</text>
<text text-anchor="middle" x="2051" y="-104.3" font-family="Times,serif" font-size="14.00">value = [1, 0]</text>
</g>
<!-- 42&#45;&gt;46 -->
<g id="edge46" class="edge"><title>42&#45;&gt;46</title>
<path fill="none" stroke="black" d="M1934.11,-192.876C1953.8,-181.573 1975.9,-168.807 1996,-157 1997.13,-156.334 1998.28,-155.659 1999.44,-154.977"/>
<polygon fill="black" stroke="black" points="2001.59,-157.769 2008.41,-149.661 1998.02,-151.747 2001.59,-157.769"/>
</g>
<!-- 44 -->
<g id="node45" class="node"><title>44</title>
<polygon fill="none" stroke="black" points="1915,-53 1823,-53 1823,-0 1915,-0 1915,-53"/>
<text text-anchor="middle" x="1869" y="-37.8" font-family="Times,serif" font-size="14.00">gini = 0.0</text>
<text text-anchor="middle" x="1869" y="-22.8" font-family="Times,serif" font-size="14.00">samples = 8</text>
<text text-anchor="middle" x="1869" y="-7.8" font-family="Times,serif" font-size="14.00">value = [0, 8]</text>
</g>
<!-- 43&#45;&gt;44 -->
<g id="edge44" class="edge"><title>43&#45;&gt;44</title>
<path fill="none" stroke="black" d="M1873.55,-88.9485C1872.94,-80.7153 1872.29,-71.848 1871.67,-63.4814"/>
<polygon fill="black" stroke="black" points="1875.14,-62.9508 1870.91,-53.2367 1868.15,-63.468 1875.14,-62.9508"/>
</g>
<!-- 45 -->
<g id="node46" class="node"><title>45</title>
<polygon fill="none" stroke="black" points="2025,-53 1933,-53 1933,-0 2025,-0 2025,-53"/>
<text text-anchor="middle" x="1979" y="-37.8" font-family="Times,serif" font-size="14.00">gini = 0.0</text>
<text text-anchor="middle" x="1979" y="-22.8" font-family="Times,serif" font-size="14.00">samples = 1</text>
<text text-anchor="middle" x="1979" y="-7.8" font-family="Times,serif" font-size="14.00">value = [1, 0]</text>
</g>
<!-- 43&#45;&gt;45 -->
<g id="edge45" class="edge"><title>43&#45;&gt;45</title>
<path fill="none" stroke="black" d="M1912.02,-88.9485C1922.19,-79.6175 1933.25,-69.4722 1943.4,-60.1641"/>
<polygon fill="black" stroke="black" points="1945.95,-62.5762 1950.95,-53.2367 1941.21,-57.4182 1945.95,-62.5762"/>
</g>
<!-- 49 -->
<g id="node50" class="node"><title>49</title>
<polygon fill="none" stroke="black" points="2357,-261 2097,-261 2097,-193 2357,-193 2357,-261"/>
<text text-anchor="middle" x="2227" y="-245.8" font-family="Times,serif" font-size="14.00">IdentifyMental_Yes, I think it would &lt;= 0.5</text>
<text text-anchor="middle" x="2227" y="-230.8" font-family="Times,serif" font-size="14.00">gini = 0.375</text>
<text text-anchor="middle" x="2227" y="-215.8" font-family="Times,serif" font-size="14.00">samples = 4</text>
<text text-anchor="middle" x="2227" y="-200.8" font-family="Times,serif" font-size="14.00">value = [3, 1]</text>
</g>
<!-- 48&#45;&gt;49 -->
<g id="edge49" class="edge"><title>48&#45;&gt;49</title>
<path fill="none" stroke="black" d="M2227,-296.884C2227,-288.778 2227,-279.982 2227,-271.472"/>
<polygon fill="black" stroke="black" points="2230.5,-271.299 2227,-261.299 2223.5,-271.299 2230.5,-271.299"/>
</g>
<!-- 52 -->
<g id="node53" class="node"><title>52</title>
<polygon fill="none" stroke="black" points="2467,-253.5 2375,-253.5 2375,-200.5 2467,-200.5 2467,-253.5"/>
<text text-anchor="middle" x="2421" y="-238.3" font-family="Times,serif" font-size="14.00">gini = 0.0</text>
<text text-anchor="middle" x="2421" y="-223.3" font-family="Times,serif" font-size="14.00">samples = 2</text>
<text text-anchor="middle" x="2421" y="-208.3" font-family="Times,serif" font-size="14.00">value = [0, 2]</text>
</g>
<!-- 48&#45;&gt;52 -->
<g id="edge52" class="edge"><title>48&#45;&gt;52</title>
<path fill="none" stroke="black" d="M2296.49,-296.855C2318.88,-285.82 2343.66,-273.219 2366,-261 2367.34,-260.265 2368.7,-259.514 2370.07,-258.751"/>
<polygon fill="black" stroke="black" points="2372.2,-261.563 2379.16,-253.573 2368.74,-255.48 2372.2,-261.563"/>
</g>
<!-- 50 -->
<g id="node51" class="node"><title>50</title>
<polygon fill="none" stroke="black" points="2240,-149.5 2148,-149.5 2148,-96.5 2240,-96.5 2240,-149.5"/>
<text text-anchor="middle" x="2194" y="-134.3" font-family="Times,serif" font-size="14.00">gini = 0.0</text>
<text text-anchor="middle" x="2194" y="-119.3" font-family="Times,serif" font-size="14.00">samples = 1</text>
<text text-anchor="middle" x="2194" y="-104.3" font-family="Times,serif" font-size="14.00">value = [0, 1]</text>
</g>
<!-- 49&#45;&gt;50 -->
<g id="edge50" class="edge"><title>49&#45;&gt;50</title>
<path fill="none" stroke="black" d="M2216.29,-192.884C2212.8,-182.106 2208.92,-170.108 2205.38,-159.184"/>
<polygon fill="black" stroke="black" points="2208.66,-157.957 2202.26,-149.52 2202,-160.112 2208.66,-157.957"/>
</g>
<!-- 51 -->
<g id="node52" class="node"><title>51</title>
<polygon fill="none" stroke="black" points="2350,-149.5 2258,-149.5 2258,-96.5 2350,-96.5 2350,-149.5"/>
<text text-anchor="middle" x="2304" y="-134.3" font-family="Times,serif" font-size="14.00">gini = 0.0</text>
<text text-anchor="middle" x="2304" y="-119.3" font-family="Times,serif" font-size="14.00">samples = 3</text>
<text text-anchor="middle" x="2304" y="-104.3" font-family="Times,serif" font-size="14.00">value = [3, 0]</text>
</g>
<!-- 49&#45;&gt;51 -->
<g id="edge51" class="edge"><title>49&#45;&gt;51</title>
<path fill="none" stroke="black" d="M2252,-192.884C2260.55,-181.556 2270.12,-168.88 2278.7,-157.521"/>
<polygon fill="black" stroke="black" points="2281.5,-159.61 2284.73,-149.52 2275.92,-155.392 2281.5,-159.61"/>
</g>
</g>
</svg>
