<?xml version="1.0" encoding="UTF-8" standalone="no"?>
<!DOCTYPE svg PUBLIC "-//W3C//DTD SVG 1.1//EN"
 "http://www.w3.org/Graphics/SVG/1.1/DTD/svg11.dtd">
<!-- Generated by graphviz version 2.38.0 (20140413.2041)
 -->
<!-- Title: Tree Pages: 1 -->
<svg width="2897pt" height="685pt"
 viewBox="0.00 0.00 2897.00 685.00" xmlns="http://www.w3.org/2000/svg" xmlns:xlink="http://www.w3.org/1999/xlink">
<g id="graph0" class="graph" transform="scale(1 1) rotate(0) translate(4 681)">
<title>Tree</title>
<polygon fill="white" stroke="none" points="-4,4 -4,-681 2893,-681 2893,4 -4,4"/>
<!-- 0 -->
<g id="node1" class="node"><title>0</title>
<polygon fill="none" stroke="black" points="1214.5,-677 1075.5,-677 1075.5,-609 1214.5,-609 1214.5,-677"/>
<text text-anchor="middle" x="1145" y="-661.8" font-family="Times,serif" font-size="14.00">Diagnosed_No &lt;= 0.5</text>
<text text-anchor="middle" x="1145" y="-646.8" font-family="Times,serif" font-size="14.00">gini = 0.3939</text>
<text text-anchor="middle" x="1145" y="-631.8" font-family="Times,serif" font-size="14.00">samples = 356</text>
<text text-anchor="middle" x="1145" y="-616.8" font-family="Times,serif" font-size="14.00">value = [260, 96]</text>
</g>
<!-- 1 -->
<g id="node2" class="node"><title>1</title>
<polygon fill="none" stroke="black" points="775,-573 617,-573 617,-505 775,-505 775,-573"/>
<text text-anchor="middle" x="696" y="-557.8" font-family="Times,serif" font-size="14.00">ResourcesBen_No &lt;= 0.5</text>
<text text-anchor="middle" x="696" y="-542.8" font-family="Times,serif" font-size="14.00">gini = 0.1827</text>
<text text-anchor="middle" x="696" y="-527.8" font-family="Times,serif" font-size="14.00">samples = 59</text>
<text text-anchor="middle" x="696" y="-512.8" font-family="Times,serif" font-size="14.00">value = [6, 53]</text>
</g>
<!-- 0&#45;&gt;1 -->
<g id="edge1" class="edge"><title>0&#45;&gt;1</title>
<path fill="none" stroke="black" d="M1075.34,-626.174C997.265,-608.439 870.485,-579.638 785.221,-560.268"/>
<polygon fill="black" stroke="black" points="785.82,-556.816 775.294,-558.013 784.27,-563.642 785.82,-556.816"/>
<text text-anchor="middle" x="788.616" y="-575.468" font-family="Times,serif" font-size="14.00">True</text>
</g>
<!-- 24 -->
<g id="node25" class="node"><title>24</title>
<polygon fill="none" stroke="black" points="1692.5,-573 1497.5,-573 1497.5,-505 1692.5,-505 1692.5,-573"/>
<text text-anchor="middle" x="1595" y="-557.8" font-family="Times,serif" font-size="14.00">NegMental_Yes, they do &lt;= 0.5</text>
<text text-anchor="middle" x="1595" y="-542.8" font-family="Times,serif" font-size="14.00">gini = 0.2476</text>
<text text-anchor="middle" x="1595" y="-527.8" font-family="Times,serif" font-size="14.00">samples = 297</text>
<text text-anchor="middle" x="1595" y="-512.8" font-family="Times,serif" font-size="14.00">value = [254, 43]</text>
</g>
<!-- 0&#45;&gt;24 -->
<g id="edge24" class="edge"><title>0&#45;&gt;24</title>
<path fill="none" stroke="black" d="M1214.82,-626.174C1287.72,-609.65 1403,-583.52 1487.52,-564.362"/>
<polygon fill="black" stroke="black" points="1488.43,-567.744 1497.41,-562.12 1486.89,-560.917 1488.43,-567.744"/>
<text text-anchor="middle" x="1484.08" y="-579.568" font-family="Times,serif" font-size="14.00">False</text>
</g>
<!-- 2 -->
<g id="node3" class="node"><title>2</title>
<polygon fill="none" stroke="black" points="379.5,-469 138.5,-469 138.5,-401 379.5,-401 379.5,-469"/>
<text text-anchor="middle" x="259" y="-453.8" font-family="Times,serif" font-size="14.00">NegResponse_Yes, I experienced &lt;= 0.5</text>
<text text-anchor="middle" x="259" y="-438.8" font-family="Times,serif" font-size="14.00">gini = 0.0555</text>
<text text-anchor="middle" x="259" y="-423.8" font-family="Times,serif" font-size="14.00">samples = 35</text>
<text text-anchor="middle" x="259" y="-408.8" font-family="Times,serif" font-size="14.00">value = [1, 34]</text>
</g>
<!-- 1&#45;&gt;2 -->
<g id="edge2" class="edge"><title>1&#45;&gt;2</title>
<path fill="none" stroke="black" d="M616.863,-519.529C553.542,-504.749 463.423,-483.714 389.463,-466.451"/>
<polygon fill="black" stroke="black" points="390.137,-463.015 379.603,-464.15 388.546,-469.831 390.137,-463.015"/>
</g>
<!-- 7 -->
<g id="node8" class="node"><title>7</title>
<polygon fill="none" stroke="black" points="823.5,-469 568.5,-469 568.5,-401 823.5,-401 823.5,-469"/>
<text text-anchor="middle" x="696" y="-453.8" font-family="Times,serif" font-size="14.00">NegMental_Yes, I think they would &lt;= 0.5</text>
<text text-anchor="middle" x="696" y="-438.8" font-family="Times,serif" font-size="14.00">gini = 0.3299</text>
<text text-anchor="middle" x="696" y="-423.8" font-family="Times,serif" font-size="14.00">samples = 24</text>
<text text-anchor="middle" x="696" y="-408.8" font-family="Times,serif" font-size="14.00">value = [5, 19]</text>
</g>
<!-- 1&#45;&gt;7 -->
<g id="edge7" class="edge"><title>1&#45;&gt;7</title>
<path fill="none" stroke="black" d="M696,-504.884C696,-496.778 696,-487.982 696,-479.472"/>
<polygon fill="black" stroke="black" points="699.5,-479.299 696,-469.299 692.5,-479.299 699.5,-479.299"/>
</g>
<!-- 3 -->
<g id="node4" class="node"><title>3</title>
<polygon fill="none" stroke="black" points="98,-357.5 7.10543e-15,-357.5 7.10543e-15,-304.5 98,-304.5 98,-357.5"/>
<text text-anchor="middle" x="49" y="-342.3" font-family="Times,serif" font-size="14.00">gini = 0.0</text>
<text text-anchor="middle" x="49" y="-327.3" font-family="Times,serif" font-size="14.00">samples = 31</text>
<text text-anchor="middle" x="49" y="-312.3" font-family="Times,serif" font-size="14.00">value = [0, 31]</text>
</g>
<!-- 2&#45;&gt;3 -->
<g id="edge3" class="edge"><title>2&#45;&gt;3</title>
<path fill="none" stroke="black" d="M182.584,-400.949C158.206,-389.97 131.267,-377.379 107,-365 105.439,-364.204 103.86,-363.386 102.271,-362.553"/>
<polygon fill="black" stroke="black" points="103.574,-359.281 93.1067,-357.645 100.269,-365.452 103.574,-359.281"/>
</g>
<!-- 4 -->
<g id="node5" class="node"><title>4</title>
<polygon fill="none" stroke="black" points="401.5,-365 116.5,-365 116.5,-297 401.5,-297 401.5,-365"/>
<text text-anchor="middle" x="259" y="-349.8" font-family="Times,serif" font-size="14.00">IdentifyMental_No, I don&#39;t think it would &lt;= 0.5</text>
<text text-anchor="middle" x="259" y="-334.8" font-family="Times,serif" font-size="14.00">gini = 0.375</text>
<text text-anchor="middle" x="259" y="-319.8" font-family="Times,serif" font-size="14.00">samples = 4</text>
<text text-anchor="middle" x="259" y="-304.8" font-family="Times,serif" font-size="14.00">value = [1, 3]</text>
</g>
<!-- 2&#45;&gt;4 -->
<g id="edge4" class="edge"><title>2&#45;&gt;4</title>
<path fill="none" stroke="black" d="M259,-400.884C259,-392.778 259,-383.982 259,-375.472"/>
<polygon fill="black" stroke="black" points="262.5,-375.299 259,-365.299 255.5,-375.299 262.5,-375.299"/>
</g>
<!-- 5 -->
<g id="node6" class="node"><title>5</title>
<polygon fill="none" stroke="black" points="195,-253.5 103,-253.5 103,-200.5 195,-200.5 195,-253.5"/>
<text text-anchor="middle" x="149" y="-238.3" font-family="Times,serif" font-size="14.00">gini = 0.0</text>
<text text-anchor="middle" x="149" y="-223.3" font-family="Times,serif" font-size="14.00">samples = 3</text>
<text text-anchor="middle" x="149" y="-208.3" font-family="Times,serif" font-size="14.00">value = [0, 3]</text>
</g>
<!-- 4&#45;&gt;5 -->
<g id="edge5" class="edge"><title>4&#45;&gt;5</title>
<path fill="none" stroke="black" d="M223.286,-296.884C210.714,-285.226 196.603,-272.141 184.083,-260.532"/>
<polygon fill="black" stroke="black" points="186.234,-257.753 176.521,-253.52 181.474,-262.886 186.234,-257.753"/>
</g>
<!-- 6 -->
<g id="node7" class="node"><title>6</title>
<polygon fill="none" stroke="black" points="305,-253.5 213,-253.5 213,-200.5 305,-200.5 305,-253.5"/>
<text text-anchor="middle" x="259" y="-238.3" font-family="Times,serif" font-size="14.00">gini = 0.0</text>
<text text-anchor="middle" x="259" y="-223.3" font-family="Times,serif" font-size="14.00">samples = 1</text>
<text text-anchor="middle" x="259" y="-208.3" font-family="Times,serif" font-size="14.00">value = [1, 0]</text>
</g>
<!-- 4&#45;&gt;6 -->
<g id="edge6" class="edge"><title>4&#45;&gt;6</title>
<path fill="none" stroke="black" d="M259,-296.884C259,-286.326 259,-274.597 259,-263.854"/>
<polygon fill="black" stroke="black" points="262.5,-263.52 259,-253.52 255.5,-263.52 262.5,-263.52"/>
</g>
<!-- 8 -->
<g id="node9" class="node"><title>8</title>
<polygon fill="none" stroke="black" points="685,-365 523,-365 523,-297 685,-297 685,-365"/>
<text text-anchor="middle" x="604" y="-349.8" font-family="Times,serif" font-size="14.00">DiscussedBen_Yes &lt;= 0.5</text>
<text text-anchor="middle" x="604" y="-334.8" font-family="Times,serif" font-size="14.00">gini = 0.2076</text>
<text text-anchor="middle" x="604" y="-319.8" font-family="Times,serif" font-size="14.00">samples = 17</text>
<text text-anchor="middle" x="604" y="-304.8" font-family="Times,serif" font-size="14.00">value = [2, 15]</text>
</g>
<!-- 7&#45;&gt;8 -->
<g id="edge8" class="edge"><title>7&#45;&gt;8</title>
<path fill="none" stroke="black" d="M666.13,-400.884C658.096,-391.976 649.31,-382.235 640.941,-372.957"/>
<polygon fill="black" stroke="black" points="643.331,-370.381 634.035,-365.299 638.133,-375.069 643.331,-370.381"/>
</g>
<!-- 17 -->
<g id="node18" class="node"><title>17</title>
<polygon fill="none" stroke="black" points="870.5,-365 703.5,-365 703.5,-297 870.5,-297 870.5,-365"/>
<text text-anchor="middle" x="787" y="-349.8" font-family="Times,serif" font-size="14.00">DiscMental_Maybe &lt;= 0.5</text>
<text text-anchor="middle" x="787" y="-334.8" font-family="Times,serif" font-size="14.00">gini = 0.4898</text>
<text text-anchor="middle" x="787" y="-319.8" font-family="Times,serif" font-size="14.00">samples = 7</text>
<text text-anchor="middle" x="787" y="-304.8" font-family="Times,serif" font-size="14.00">value = [3, 4]</text>
</g>
<!-- 7&#45;&gt;17 -->
<g id="edge17" class="edge"><title>7&#45;&gt;17</title>
<path fill="none" stroke="black" d="M725.545,-400.884C733.492,-391.976 742.182,-382.235 750.46,-372.957"/>
<polygon fill="black" stroke="black" points="753.246,-375.091 757.292,-365.299 748.023,-370.431 753.246,-375.091"/>
</g>
<!-- 9 -->
<g id="node10" class="node"><title>9</title>
<polygon fill="none" stroke="black" points="486.5,-261 323.5,-261 323.5,-193 486.5,-193 486.5,-261"/>
<text text-anchor="middle" x="405" y="-245.8" font-family="Times,serif" font-size="14.00">Anon_I don&#39;t know &lt;= 0.5</text>
<text text-anchor="middle" x="405" y="-230.8" font-family="Times,serif" font-size="14.00">gini = 0.1244</text>
<text text-anchor="middle" x="405" y="-215.8" font-family="Times,serif" font-size="14.00">samples = 15</text>
<text text-anchor="middle" x="405" y="-200.8" font-family="Times,serif" font-size="14.00">value = [1, 14]</text>
</g>
<!-- 8&#45;&gt;9 -->
<g id="edge9" class="edge"><title>8&#45;&gt;9</title>
<path fill="none" stroke="black" d="M539.39,-296.884C520.002,-286.946 498.59,-275.971 478.664,-265.757"/>
<polygon fill="black" stroke="black" points="480.121,-262.571 469.626,-261.125 476.928,-268.801 480.121,-262.571"/>
</g>
<!-- 14 -->
<g id="node15" class="node"><title>14</title>
<polygon fill="none" stroke="black" points="717,-261 505,-261 505,-193 717,-193 717,-261"/>
<text text-anchor="middle" x="611" y="-245.8" font-family="Times,serif" font-size="14.00">NegMental_No, they do not &lt;= 0.5</text>
<text text-anchor="middle" x="611" y="-230.8" font-family="Times,serif" font-size="14.00">gini = 0.5</text>
<text text-anchor="middle" x="611" y="-215.8" font-family="Times,serif" font-size="14.00">samples = 2</text>
<text text-anchor="middle" x="611" y="-200.8" font-family="Times,serif" font-size="14.00">value = [1, 1]</text>
</g>
<!-- 8&#45;&gt;14 -->
<g id="edge14" class="edge"><title>8&#45;&gt;14</title>
<path fill="none" stroke="black" d="M606.273,-296.884C606.829,-288.778 607.433,-279.982 608.017,-271.472"/>
<polygon fill="black" stroke="black" points="611.522,-271.516 608.715,-261.299 604.538,-271.036 611.522,-271.516"/>
</g>
<!-- 10 -->
<g id="node11" class="node"><title>10</title>
<polygon fill="none" stroke="black" points="357.5,-157 172.5,-157 172.5,-89 357.5,-89 357.5,-157"/>
<text text-anchor="middle" x="265" y="-141.8" font-family="Times,serif" font-size="14.00">IdentifyMental_Maybe &lt;= 0.5</text>
<text text-anchor="middle" x="265" y="-126.8" font-family="Times,serif" font-size="14.00">gini = 0.5</text>
<text text-anchor="middle" x="265" y="-111.8" font-family="Times,serif" font-size="14.00">samples = 2</text>
<text text-anchor="middle" x="265" y="-96.8" font-family="Times,serif" font-size="14.00">value = [1, 1]</text>
</g>
<!-- 9&#45;&gt;10 -->
<g id="edge10" class="edge"><title>9&#45;&gt;10</title>
<path fill="none" stroke="black" d="M359.546,-192.884C346.587,-183.442 332.342,-173.064 318.93,-163.292"/>
<polygon fill="black" stroke="black" points="320.848,-160.359 310.705,-157.299 316.726,-166.017 320.848,-160.359"/>
</g>
<!-- 13 -->
<g id="node14" class="node"><title>13</title>
<polygon fill="none" stroke="black" points="473,-149.5 375,-149.5 375,-96.5 473,-96.5 473,-149.5"/>
<text text-anchor="middle" x="424" y="-134.3" font-family="Times,serif" font-size="14.00">gini = 0.0</text>
<text text-anchor="middle" x="424" y="-119.3" font-family="Times,serif" font-size="14.00">samples = 13</text>
<text text-anchor="middle" x="424" y="-104.3" font-family="Times,serif" font-size="14.00">value = [0, 13]</text>
</g>
<!-- 9&#45;&gt;13 -->
<g id="edge13" class="edge"><title>9&#45;&gt;13</title>
<path fill="none" stroke="black" d="M411.169,-192.884C413.156,-182.216 415.366,-170.352 417.384,-159.519"/>
<polygon fill="black" stroke="black" points="420.856,-159.992 419.246,-149.52 413.974,-158.71 420.856,-159.992"/>
</g>
<!-- 11 -->
<g id="node12" class="node"><title>11</title>
<polygon fill="none" stroke="black" points="256,-53 164,-53 164,-0 256,-0 256,-53"/>
<text text-anchor="middle" x="210" y="-37.8" font-family="Times,serif" font-size="14.00">gini = 0.0</text>
<text text-anchor="middle" x="210" y="-22.8" font-family="Times,serif" font-size="14.00">samples = 1</text>
<text text-anchor="middle" x="210" y="-7.8" font-family="Times,serif" font-size="14.00">value = [0, 1]</text>
</g>
<!-- 10&#45;&gt;11 -->
<g id="edge11" class="edge"><title>10&#45;&gt;11</title>
<path fill="none" stroke="black" d="M245.764,-88.9485C240.706,-80.2579 235.236,-70.8608 230.133,-62.0917"/>
<polygon fill="black" stroke="black" points="233.034,-60.1189 224.979,-53.2367 226.984,-63.6401 233.034,-60.1189"/>
</g>
<!-- 12 -->
<g id="node13" class="node"><title>12</title>
<polygon fill="none" stroke="black" points="366,-53 274,-53 274,-0 366,-0 366,-53"/>
<text text-anchor="middle" x="320" y="-37.8" font-family="Times,serif" font-size="14.00">gini = 0.0</text>
<text text-anchor="middle" x="320" y="-22.8" font-family="Times,serif" font-size="14.00">samples = 1</text>
<text text-anchor="middle" x="320" y="-7.8" font-family="Times,serif" font-size="14.00">value = [1, 0]</text>
</g>
<!-- 10&#45;&gt;12 -->
<g id="edge12" class="edge"><title>10&#45;&gt;12</title>
<path fill="none" stroke="black" d="M284.236,-88.9485C289.294,-80.2579 294.764,-70.8608 299.867,-62.0917"/>
<polygon fill="black" stroke="black" points="303.016,-63.6401 305.021,-53.2367 296.966,-60.1189 303.016,-63.6401"/>
</g>
<!-- 15 -->
<g id="node16" class="node"><title>15</title>
<polygon fill="none" stroke="black" points="620,-149.5 528,-149.5 528,-96.5 620,-96.5 620,-149.5"/>
<text text-anchor="middle" x="574" y="-134.3" font-family="Times,serif" font-size="14.00">gini = 0.0</text>
<text text-anchor="middle" x="574" y="-119.3" font-family="Times,serif" font-size="14.00">samples = 1</text>
<text text-anchor="middle" x="574" y="-104.3" font-family="Times,serif" font-size="14.00">value = [1, 0]</text>
</g>
<!-- 14&#45;&gt;15 -->
<g id="edge15" class="edge"><title>14&#45;&gt;15</title>
<path fill="none" stroke="black" d="M598.987,-192.884C595.078,-182.106 590.725,-170.108 586.763,-159.184"/>
<polygon fill="black" stroke="black" points="589.958,-157.727 583.257,-149.52 583.377,-160.114 589.958,-157.727"/>
</g>
<!-- 16 -->
<g id="node17" class="node"><title>16</title>
<polygon fill="none" stroke="black" points="730,-149.5 638,-149.5 638,-96.5 730,-96.5 730,-149.5"/>
<text text-anchor="middle" x="684" y="-134.3" font-family="Times,serif" font-size="14.00">gini = 0.0</text>
<text text-anchor="middle" x="684" y="-119.3" font-family="Times,serif" font-size="14.00">samples = 1</text>
<text text-anchor="middle" x="684" y="-104.3" font-family="Times,serif" font-size="14.00">value = [0, 1]</text>
</g>
<!-- 14&#45;&gt;16 -->
<g id="edge16" class="edge"><title>14&#45;&gt;16</title>
<path fill="none" stroke="black" d="M634.701,-192.884C642.729,-181.666 651.704,-169.126 659.773,-157.852"/>
<polygon fill="black" stroke="black" points="662.762,-159.689 665.736,-149.52 657.07,-155.615 662.762,-159.689"/>
</g>
<!-- 18 -->
<g id="node19" class="node"><title>18</title>
<polygon fill="none" stroke="black" points="827,-253.5 735,-253.5 735,-200.5 827,-200.5 827,-253.5"/>
<text text-anchor="middle" x="781" y="-238.3" font-family="Times,serif" font-size="14.00">gini = 0.0</text>
<text text-anchor="middle" x="781" y="-223.3" font-family="Times,serif" font-size="14.00">samples = 3</text>
<text text-anchor="middle" x="781" y="-208.3" font-family="Times,serif" font-size="14.00">value = [0, 3]</text>
</g>
<!-- 17&#45;&gt;18 -->
<g id="edge18" class="edge"><title>17&#45;&gt;18</title>
<path fill="none" stroke="black" d="M785.052,-296.884C784.424,-286.216 783.727,-274.352 783.089,-263.519"/>
<polygon fill="black" stroke="black" points="786.582,-263.297 782.501,-253.52 779.595,-263.708 786.582,-263.297"/>
</g>
<!-- 19 -->
<g id="node20" class="node"><title>19</title>
<polygon fill="none" stroke="black" points="1072.5,-261 845.5,-261 845.5,-193 1072.5,-193 1072.5,-261"/>
<text text-anchor="middle" x="959" y="-245.8" font-family="Times,serif" font-size="14.00">NegResponse_Maybe/Not sure &lt;= 0.5</text>
<text text-anchor="middle" x="959" y="-230.8" font-family="Times,serif" font-size="14.00">gini = 0.375</text>
<text text-anchor="middle" x="959" y="-215.8" font-family="Times,serif" font-size="14.00">samples = 4</text>
<text text-anchor="middle" x="959" y="-200.8" font-family="Times,serif" font-size="14.00">value = [3, 1]</text>
</g>
<!-- 17&#45;&gt;19 -->
<g id="edge19" class="edge"><title>17&#45;&gt;19</title>
<path fill="none" stroke="black" d="M842.843,-296.884C859.299,-287.125 877.441,-276.366 894.398,-266.31"/>
<polygon fill="black" stroke="black" points="896.327,-269.236 903.143,-261.125 892.756,-263.215 896.327,-269.236"/>
</g>
<!-- 20 -->
<g id="node21" class="node"><title>20</title>
<polygon fill="none" stroke="black" points="858,-149.5 766,-149.5 766,-96.5 858,-96.5 858,-149.5"/>
<text text-anchor="middle" x="812" y="-134.3" font-family="Times,serif" font-size="14.00">gini = 0.0</text>
<text text-anchor="middle" x="812" y="-119.3" font-family="Times,serif" font-size="14.00">samples = 2</text>
<text text-anchor="middle" x="812" y="-104.3" font-family="Times,serif" font-size="14.00">value = [2, 0]</text>
</g>
<!-- 19&#45;&gt;20 -->
<g id="edge20" class="edge"><title>19&#45;&gt;20</title>
<path fill="none" stroke="black" d="M911.273,-192.884C893.838,-180.786 874.188,-167.151 856.999,-155.224"/>
<polygon fill="black" stroke="black" points="858.99,-152.345 848.779,-149.52 854.999,-158.096 858.99,-152.345"/>
</g>
<!-- 21 -->
<g id="node22" class="node"><title>21</title>
<polygon fill="none" stroke="black" points="1041.5,-157 876.5,-157 876.5,-89 1041.5,-89 1041.5,-157"/>
<text text-anchor="middle" x="959" y="-141.8" font-family="Times,serif" font-size="14.00">DiscMentalCo_Yes &lt;= 0.5</text>
<text text-anchor="middle" x="959" y="-126.8" font-family="Times,serif" font-size="14.00">gini = 0.5</text>
<text text-anchor="middle" x="959" y="-111.8" font-family="Times,serif" font-size="14.00">samples = 2</text>
<text text-anchor="middle" x="959" y="-96.8" font-family="Times,serif" font-size="14.00">value = [1, 1]</text>
</g>
<!-- 19&#45;&gt;21 -->
<g id="edge21" class="edge"><title>19&#45;&gt;21</title>
<path fill="none" stroke="black" d="M959,-192.884C959,-184.778 959,-175.982 959,-167.472"/>
<polygon fill="black" stroke="black" points="962.5,-167.299 959,-157.299 955.5,-167.299 962.5,-167.299"/>
</g>
<!-- 22 -->
<g id="node23" class="node"><title>22</title>
<polygon fill="none" stroke="black" points="918,-53 826,-53 826,-0 918,-0 918,-53"/>
<text text-anchor="middle" x="872" y="-37.8" font-family="Times,serif" font-size="14.00">gini = 0.0</text>
<text text-anchor="middle" x="872" y="-22.8" font-family="Times,serif" font-size="14.00">samples = 1</text>
<text text-anchor="middle" x="872" y="-7.8" font-family="Times,serif" font-size="14.00">value = [0, 1]</text>
</g>
<!-- 21&#45;&gt;22 -->
<g id="edge22" class="edge"><title>21&#45;&gt;22</title>
<path fill="none" stroke="black" d="M928.572,-88.9485C920.15,-79.8005 911.007,-69.8697 902.577,-60.7126"/>
<polygon fill="black" stroke="black" points="905.042,-58.2231 895.694,-53.2367 899.892,-62.9643 905.042,-58.2231"/>
</g>
<!-- 23 -->
<g id="node24" class="node"><title>23</title>
<polygon fill="none" stroke="black" points="1028,-53 936,-53 936,-0 1028,-0 1028,-53"/>
<text text-anchor="middle" x="982" y="-37.8" font-family="Times,serif" font-size="14.00">gini = 0.0</text>
<text text-anchor="middle" x="982" y="-22.8" font-family="Times,serif" font-size="14.00">samples = 1</text>
<text text-anchor="middle" x="982" y="-7.8" font-family="Times,serif" font-size="14.00">value = [1, 0]</text>
</g>
<!-- 21&#45;&gt;23 -->
<g id="edge23" class="edge"><title>21&#45;&gt;23</title>
<path fill="none" stroke="black" d="M967.044,-88.9485C969.07,-80.6238 971.254,-71.6509 973.31,-63.2027"/>
<polygon fill="black" stroke="black" points="976.772,-63.7808 975.736,-53.2367 969.97,-62.1253 976.772,-63.7808"/>
</g>
<!-- 25 -->
<g id="node26" class="node"><title>25</title>
<polygon fill="none" stroke="black" points="1681,-469 1509,-469 1509,-401 1681,-401 1681,-469"/>
<text text-anchor="middle" x="1595" y="-453.8" font-family="Times,serif" font-size="14.00">MentalInterview_No &lt;= 0.5</text>
<text text-anchor="middle" x="1595" y="-438.8" font-family="Times,serif" font-size="14.00">gini = 0.2393</text>
<text text-anchor="middle" x="1595" y="-423.8" font-family="Times,serif" font-size="14.00">samples = 295</text>
<text text-anchor="middle" x="1595" y="-408.8" font-family="Times,serif" font-size="14.00">value = [254, 41]</text>
</g>
<!-- 24&#45;&gt;25 -->
<g id="edge25" class="edge"><title>24&#45;&gt;25</title>
<path fill="none" stroke="black" d="M1595,-504.884C1595,-496.778 1595,-487.982 1595,-479.472"/>
<polygon fill="black" stroke="black" points="1598.5,-479.299 1595,-469.299 1591.5,-479.299 1598.5,-479.299"/>
</g>
<!-- 56 -->
<g id="node57" class="node"><title>56</title>
<polygon fill="none" stroke="black" points="1791,-461.5 1699,-461.5 1699,-408.5 1791,-408.5 1791,-461.5"/>
<text text-anchor="middle" x="1745" y="-446.3" font-family="Times,serif" font-size="14.00">gini = 0.0</text>
<text text-anchor="middle" x="1745" y="-431.3" font-family="Times,serif" font-size="14.00">samples = 2</text>
<text text-anchor="middle" x="1745" y="-416.3" font-family="Times,serif" font-size="14.00">value = [0, 2]</text>
</g>
<!-- 24&#45;&gt;56 -->
<g id="edge56" class="edge"><title>24&#45;&gt;56</title>
<path fill="none" stroke="black" d="M1643.7,-504.884C1661.49,-492.786 1681.54,-479.151 1699.08,-467.224"/>
<polygon fill="black" stroke="black" points="1701.17,-470.037 1707.47,-461.52 1697.23,-464.249 1701.17,-470.037"/>
</g>
<!-- 26 -->
<g id="node27" class="node"><title>26</title>
<polygon fill="none" stroke="black" points="1680.5,-365 1509.5,-365 1509.5,-297 1680.5,-297 1680.5,-365"/>
<text text-anchor="middle" x="1595" y="-349.8" font-family="Times,serif" font-size="14.00">MentalSeriously_No &lt;= 0.5</text>
<text text-anchor="middle" x="1595" y="-334.8" font-family="Times,serif" font-size="14.00">gini = 0.1653</text>
<text text-anchor="middle" x="1595" y="-319.8" font-family="Times,serif" font-size="14.00">samples = 143</text>
<text text-anchor="middle" x="1595" y="-304.8" font-family="Times,serif" font-size="14.00">value = [130, 13]</text>
</g>
<!-- 25&#45;&gt;26 -->
<g id="edge26" class="edge"><title>25&#45;&gt;26</title>
<path fill="none" stroke="black" d="M1595,-400.884C1595,-392.778 1595,-383.982 1595,-375.472"/>
<polygon fill="black" stroke="black" points="1598.5,-375.299 1595,-365.299 1591.5,-375.299 1598.5,-375.299"/>
</g>
<!-- 41 -->
<g id="node42" class="node"><title>41</title>
<polygon fill="none" stroke="black" points="2292.5,-365 2127.5,-365 2127.5,-297 2292.5,-297 2292.5,-365"/>
<text text-anchor="middle" x="2210" y="-349.8" font-family="Times,serif" font-size="14.00">DiscMentalCo_Yes &lt;= 0.5</text>
<text text-anchor="middle" x="2210" y="-334.8" font-family="Times,serif" font-size="14.00">gini = 0.3006</text>
<text text-anchor="middle" x="2210" y="-319.8" font-family="Times,serif" font-size="14.00">samples = 152</text>
<text text-anchor="middle" x="2210" y="-304.8" font-family="Times,serif" font-size="14.00">value = [124, 28]</text>
</g>
<!-- 25&#45;&gt;41 -->
<g id="edge41" class="edge"><title>25&#45;&gt;41</title>
<path fill="none" stroke="black" d="M1681.25,-403.21C1684.19,-402.426 1687.11,-401.686 1690,-401 1837.06,-366.081 2012.01,-347.437 2116.87,-338.643"/>
<polygon fill="black" stroke="black" points="2117.43,-342.109 2127.1,-337.797 2116.85,-335.132 2117.43,-342.109"/>
</g>
<!-- 27 -->
<g id="node28" class="node"><title>27</title>
<polygon fill="none" stroke="black" points="1542,-261 1426,-261 1426,-193 1542,-193 1542,-261"/>
<text text-anchor="middle" x="1484" y="-245.8" font-family="Times,serif" font-size="14.00">Anon_Yes &lt;= 0.5</text>
<text text-anchor="middle" x="1484" y="-230.8" font-family="Times,serif" font-size="14.00">gini = 0.109</text>
<text text-anchor="middle" x="1484" y="-215.8" font-family="Times,serif" font-size="14.00">samples = 121</text>
<text text-anchor="middle" x="1484" y="-200.8" font-family="Times,serif" font-size="14.00">value = [114, 7]</text>
</g>
<!-- 26&#45;&gt;27 -->
<g id="edge27" class="edge"><title>26&#45;&gt;27</title>
<path fill="none" stroke="black" d="M1558.96,-296.884C1548.98,-287.709 1538.03,-277.65 1527.66,-268.123"/>
<polygon fill="black" stroke="black" points="1529.97,-265.488 1520.24,-261.299 1525.23,-270.643 1529.97,-265.488"/>
</g>
<!-- 34 -->
<g id="node35" class="node"><title>34</title>
<polygon fill="none" stroke="black" points="1798.5,-261 1613.5,-261 1613.5,-193 1798.5,-193 1798.5,-261"/>
<text text-anchor="middle" x="1706" y="-245.8" font-family="Times,serif" font-size="14.00">IdentifyMental_Maybe &lt;= 0.5</text>
<text text-anchor="middle" x="1706" y="-230.8" font-family="Times,serif" font-size="14.00">gini = 0.3967</text>
<text text-anchor="middle" x="1706" y="-215.8" font-family="Times,serif" font-size="14.00">samples = 22</text>
<text text-anchor="middle" x="1706" y="-200.8" font-family="Times,serif" font-size="14.00">value = [16, 6]</text>
</g>
<!-- 26&#45;&gt;34 -->
<g id="edge34" class="edge"><title>26&#45;&gt;34</title>
<path fill="none" stroke="black" d="M1631.04,-296.884C1641.02,-287.709 1651.97,-277.65 1662.34,-268.123"/>
<polygon fill="black" stroke="black" points="1664.77,-270.643 1669.76,-261.299 1660.03,-265.488 1664.77,-270.643"/>
</g>
<!-- 28 -->
<g id="node29" class="node"><title>28</title>
<polygon fill="none" stroke="black" points="1344.5,-157 1059.5,-157 1059.5,-89 1344.5,-89 1344.5,-157"/>
<text text-anchor="middle" x="1202" y="-141.8" font-family="Times,serif" font-size="14.00">IdentifyMental_No, I don&#39;t think it would &lt;= 0.5</text>
<text text-anchor="middle" x="1202" y="-126.8" font-family="Times,serif" font-size="14.00">gini = 0.0494</text>
<text text-anchor="middle" x="1202" y="-111.8" font-family="Times,serif" font-size="14.00">samples = 79</text>
<text text-anchor="middle" x="1202" y="-96.8" font-family="Times,serif" font-size="14.00">value = [77, 2]</text>
</g>
<!-- 27&#45;&gt;28 -->
<g id="edge28" class="edge"><title>27&#45;&gt;28</title>
<path fill="none" stroke="black" d="M1425.91,-204.989C1390.46,-192.167 1344.16,-175.421 1302.88,-160.487"/>
<polygon fill="black" stroke="black" points="1303.92,-157.143 1293.33,-157.033 1301.54,-163.725 1303.92,-157.143"/>
</g>
<!-- 31 -->
<g id="node32" class="node"><title>31</title>
<polygon fill="none" stroke="black" points="1605,-157 1363,-157 1363,-89 1605,-89 1605,-157"/>
<text text-anchor="middle" x="1484" y="-141.8" font-family="Times,serif" font-size="14.00">MentalLeave_Somewhat difficult &lt;= 0.5</text>
<text text-anchor="middle" x="1484" y="-126.8" font-family="Times,serif" font-size="14.00">gini = 0.2098</text>
<text text-anchor="middle" x="1484" y="-111.8" font-family="Times,serif" font-size="14.00">samples = 42</text>
<text text-anchor="middle" x="1484" y="-96.8" font-family="Times,serif" font-size="14.00">value = [37, 5]</text>
</g>
<!-- 27&#45;&gt;31 -->
<g id="edge31" class="edge"><title>27&#45;&gt;31</title>
<path fill="none" stroke="black" d="M1484,-192.884C1484,-184.778 1484,-175.982 1484,-167.472"/>
<polygon fill="black" stroke="black" points="1487.5,-167.299 1484,-157.299 1480.5,-167.299 1487.5,-167.299"/>
</g>
<!-- 29 -->
<g id="node30" class="node"><title>29</title>
<polygon fill="none" stroke="black" points="1166,-53 1068,-53 1068,-0 1166,-0 1166,-53"/>
<text text-anchor="middle" x="1117" y="-37.8" font-family="Times,serif" font-size="14.00">gini = 0.0</text>
<text text-anchor="middle" x="1117" y="-22.8" font-family="Times,serif" font-size="14.00">samples = 70</text>
<text text-anchor="middle" x="1117" y="-7.8" font-family="Times,serif" font-size="14.00">value = [70, 0]</text>
</g>
<!-- 28&#45;&gt;29 -->
<g id="edge29" class="edge"><title>28&#45;&gt;29</title>
<path fill="none" stroke="black" d="M1172.27,-88.9485C1164.04,-79.8005 1155.11,-69.8697 1146.87,-60.7126"/>
<polygon fill="black" stroke="black" points="1149.44,-58.331 1140.15,-53.2367 1144.23,-63.0123 1149.44,-58.331"/>
</g>
<!-- 30 -->
<g id="node31" class="node"><title>30</title>
<polygon fill="none" stroke="black" points="1276,-53 1184,-53 1184,-0 1276,-0 1276,-53"/>
<text text-anchor="middle" x="1230" y="-37.8" font-family="Times,serif" font-size="14.00">gini = 0.3457</text>
<text text-anchor="middle" x="1230" y="-22.8" font-family="Times,serif" font-size="14.00">samples = 9</text>
<text text-anchor="middle" x="1230" y="-7.8" font-family="Times,serif" font-size="14.00">value = [7, 2]</text>
</g>
<!-- 28&#45;&gt;30 -->
<g id="edge30" class="edge"><title>28&#45;&gt;30</title>
<path fill="none" stroke="black" d="M1211.79,-88.9485C1214.29,-80.5323 1216.98,-71.4536 1219.5,-62.9243"/>
<polygon fill="black" stroke="black" points="1222.89,-63.819 1222.37,-53.2367 1216.18,-61.8304 1222.89,-63.819"/>
</g>
<!-- 32 -->
<g id="node33" class="node"><title>32</title>
<polygon fill="none" stroke="black" points="1420,-53 1322,-53 1322,-0 1420,-0 1420,-53"/>
<text text-anchor="middle" x="1371" y="-37.8" font-family="Times,serif" font-size="14.00">gini = 0.18</text>
<text text-anchor="middle" x="1371" y="-22.8" font-family="Times,serif" font-size="14.00">samples = 40</text>
<text text-anchor="middle" x="1371" y="-7.8" font-family="Times,serif" font-size="14.00">value = [36, 4]</text>
</g>
<!-- 31&#45;&gt;32 -->
<g id="edge32" class="edge"><title>31&#45;&gt;32</title>
<path fill="none" stroke="black" d="M1444.48,-88.9485C1433.21,-79.526 1420.95,-69.2731 1409.73,-59.8906"/>
<polygon fill="black" stroke="black" points="1411.69,-56.967 1401.78,-53.2367 1407.2,-62.3368 1411.69,-56.967"/>
</g>
<!-- 33 -->
<g id="node34" class="node"><title>33</title>
<polygon fill="none" stroke="black" points="1530,-53 1438,-53 1438,-0 1530,-0 1530,-53"/>
<text text-anchor="middle" x="1484" y="-37.8" font-family="Times,serif" font-size="14.00">gini = 0.5</text>
<text text-anchor="middle" x="1484" y="-22.8" font-family="Times,serif" font-size="14.00">samples = 2</text>
<text text-anchor="middle" x="1484" y="-7.8" font-family="Times,serif" font-size="14.00">value = [1, 1]</text>
</g>
<!-- 31&#45;&gt;33 -->
<g id="edge33" class="edge"><title>31&#45;&gt;33</title>
<path fill="none" stroke="black" d="M1484,-88.9485C1484,-80.7153 1484,-71.848 1484,-63.4814"/>
<polygon fill="black" stroke="black" points="1487.5,-63.2367 1484,-53.2367 1480.5,-63.2367 1487.5,-63.2367"/>
</g>
<!-- 35 -->
<g id="node36" class="node"><title>35</title>
<polygon fill="none" stroke="black" points="1789,-157 1623,-157 1623,-89 1789,-89 1789,-157"/>
<text text-anchor="middle" x="1706" y="-141.8" font-family="Times,serif" font-size="14.00">DiscMentalSup_No &lt;= 0.5</text>
<text text-anchor="middle" x="1706" y="-126.8" font-family="Times,serif" font-size="14.00">gini = 0.1528</text>
<text text-anchor="middle" x="1706" y="-111.8" font-family="Times,serif" font-size="14.00">samples = 12</text>
<text text-anchor="middle" x="1706" y="-96.8" font-family="Times,serif" font-size="14.00">value = [11, 1]</text>
</g>
<!-- 34&#45;&gt;35 -->
<g id="edge35" class="edge"><title>34&#45;&gt;35</title>
<path fill="none" stroke="black" d="M1706,-192.884C1706,-184.778 1706,-175.982 1706,-167.472"/>
<polygon fill="black" stroke="black" points="1709.5,-167.299 1706,-157.299 1702.5,-167.299 1709.5,-167.299"/>
</g>
<!-- 38 -->
<g id="node39" class="node"><title>38</title>
<polygon fill="none" stroke="black" points="1989,-157 1807,-157 1807,-89 1989,-89 1989,-157"/>
<text text-anchor="middle" x="1898" y="-141.8" font-family="Times,serif" font-size="14.00">DiscMentalCo_Maybe &lt;= 0.5</text>
<text text-anchor="middle" x="1898" y="-126.8" font-family="Times,serif" font-size="14.00">gini = 0.5</text>
<text text-anchor="middle" x="1898" y="-111.8" font-family="Times,serif" font-size="14.00">samples = 10</text>
<text text-anchor="middle" x="1898" y="-96.8" font-family="Times,serif" font-size="14.00">value = [5, 5]</text>
</g>
<!-- 34&#45;&gt;38 -->
<g id="edge38" class="edge"><title>34&#45;&gt;38</title>
<path fill="none" stroke="black" d="M1768.34,-192.884C1786.96,-182.991 1807.52,-172.07 1826.67,-161.895"/>
<polygon fill="black" stroke="black" points="1828.46,-164.907 1835.65,-157.125 1825.17,-158.725 1828.46,-164.907"/>
</g>
<!-- 36 -->
<g id="node37" class="node"><title>36</title>
<polygon fill="none" stroke="black" points="1646,-53 1548,-53 1548,-0 1646,-0 1646,-53"/>
<text text-anchor="middle" x="1597" y="-37.8" font-family="Times,serif" font-size="14.00">gini = 0.0</text>
<text text-anchor="middle" x="1597" y="-22.8" font-family="Times,serif" font-size="14.00">samples = 10</text>
<text text-anchor="middle" x="1597" y="-7.8" font-family="Times,serif" font-size="14.00">value = [10, 0]</text>
</g>
<!-- 35&#45;&gt;36 -->
<g id="edge36" class="edge"><title>35&#45;&gt;36</title>
<path fill="none" stroke="black" d="M1667.88,-88.9485C1657.01,-79.526 1645.18,-69.2731 1634.36,-59.8906"/>
<polygon fill="black" stroke="black" points="1636.53,-57.1428 1626.69,-53.2367 1631.95,-62.4319 1636.53,-57.1428"/>
</g>
<!-- 37 -->
<g id="node38" class="node"><title>37</title>
<polygon fill="none" stroke="black" points="1756,-53 1664,-53 1664,-0 1756,-0 1756,-53"/>
<text text-anchor="middle" x="1710" y="-37.8" font-family="Times,serif" font-size="14.00">gini = 0.5</text>
<text text-anchor="middle" x="1710" y="-22.8" font-family="Times,serif" font-size="14.00">samples = 2</text>
<text text-anchor="middle" x="1710" y="-7.8" font-family="Times,serif" font-size="14.00">value = [1, 1]</text>
</g>
<!-- 35&#45;&gt;37 -->
<g id="edge37" class="edge"><title>35&#45;&gt;37</title>
<path fill="none" stroke="black" d="M1707.4,-88.9485C1707.75,-80.7153 1708.12,-71.848 1708.48,-63.4814"/>
<polygon fill="black" stroke="black" points="1711.98,-63.3758 1708.91,-53.2367 1704.99,-63.0797 1711.98,-63.3758"/>
</g>
<!-- 39 -->
<g id="node40" class="node"><title>39</title>
<polygon fill="none" stroke="black" points="1866,-53 1774,-53 1774,-0 1866,-0 1866,-53"/>
<text text-anchor="middle" x="1820" y="-37.8" font-family="Times,serif" font-size="14.00">gini = 0.0</text>
<text text-anchor="middle" x="1820" y="-22.8" font-family="Times,serif" font-size="14.00">samples = 5</text>
<text text-anchor="middle" x="1820" y="-7.8" font-family="Times,serif" font-size="14.00">value = [0, 5]</text>
</g>
<!-- 38&#45;&gt;39 -->
<g id="edge39" class="edge"><title>38&#45;&gt;39</title>
<path fill="none" stroke="black" d="M1870.72,-88.9485C1863.24,-79.892 1855.14,-70.0682 1847.64,-60.9875"/>
<polygon fill="black" stroke="black" points="1850.31,-58.721 1841.24,-53.2367 1844.91,-63.1769 1850.31,-58.721"/>
</g>
<!-- 40 -->
<g id="node41" class="node"><title>40</title>
<polygon fill="none" stroke="black" points="1976,-53 1884,-53 1884,-0 1976,-0 1976,-53"/>
<text text-anchor="middle" x="1930" y="-37.8" font-family="Times,serif" font-size="14.00">gini = 0.0</text>
<text text-anchor="middle" x="1930" y="-22.8" font-family="Times,serif" font-size="14.00">samples = 5</text>
<text text-anchor="middle" x="1930" y="-7.8" font-family="Times,serif" font-size="14.00">value = [5, 0]</text>
</g>
<!-- 38&#45;&gt;40 -->
<g id="edge40" class="edge"><title>38&#45;&gt;40</title>
<path fill="none" stroke="black" d="M1909.19,-88.9485C1912.04,-80.5323 1915.12,-71.4536 1918,-62.9243"/>
<polygon fill="black" stroke="black" points="1921.39,-63.831 1921.28,-53.2367 1914.76,-61.5858 1921.39,-63.831"/>
</g>
<!-- 42 -->
<g id="node43" class="node"><title>42</title>
<polygon fill="none" stroke="black" points="2282,-261 2138,-261 2138,-193 2282,-193 2282,-261"/>
<text text-anchor="middle" x="2210" y="-245.8" font-family="Times,serif" font-size="14.00">NegConseq_No &lt;= 0.5</text>
<text text-anchor="middle" x="2210" y="-230.8" font-family="Times,serif" font-size="14.00">gini = 0.2637</text>
<text text-anchor="middle" x="2210" y="-215.8" font-family="Times,serif" font-size="14.00">samples = 128</text>
<text text-anchor="middle" x="2210" y="-200.8" font-family="Times,serif" font-size="14.00">value = [108, 20]</text>
</g>
<!-- 41&#45;&gt;42 -->
<g id="edge42" class="edge"><title>41&#45;&gt;42</title>
<path fill="none" stroke="black" d="M2210,-296.884C2210,-288.778 2210,-279.982 2210,-271.472"/>
<polygon fill="black" stroke="black" points="2213.5,-271.299 2210,-261.299 2206.5,-271.299 2213.5,-271.299"/>
</g>
<!-- 49 -->
<g id="node50" class="node"><title>49</title>
<polygon fill="none" stroke="black" points="2659,-261 2449,-261 2449,-193 2659,-193 2659,-261"/>
<text text-anchor="middle" x="2554" y="-245.8" font-family="Times,serif" font-size="14.00">ResourcesBen_I don&#39;t know &lt;= 0.5</text>
<text text-anchor="middle" x="2554" y="-230.8" font-family="Times,serif" font-size="14.00">gini = 0.4444</text>
<text text-anchor="middle" x="2554" y="-215.8" font-family="Times,serif" font-size="14.00">samples = 24</text>
<text text-anchor="middle" x="2554" y="-200.8" font-family="Times,serif" font-size="14.00">value = [16, 8]</text>
</g>
<!-- 41&#45;&gt;49 -->
<g id="edge49" class="edge"><title>41&#45;&gt;49</title>
<path fill="none" stroke="black" d="M2292.83,-305.439C2336.64,-292.451 2391.1,-276.302 2438.94,-262.116"/>
<polygon fill="black" stroke="black" points="2440.14,-265.413 2448.73,-259.214 2438.15,-258.701 2440.14,-265.413"/>
</g>
<!-- 43 -->
<g id="node44" class="node"><title>43</title>
<polygon fill="none" stroke="black" points="2171,-157 2007,-157 2007,-89 2171,-89 2171,-157"/>
<text text-anchor="middle" x="2089" y="-141.8" font-family="Times,serif" font-size="14.00">NegMental_Maybe &lt;= 0.5</text>
<text text-anchor="middle" x="2089" y="-126.8" font-family="Times,serif" font-size="14.00">gini = 0.4898</text>
<text text-anchor="middle" x="2089" y="-111.8" font-family="Times,serif" font-size="14.00">samples = 7</text>
<text text-anchor="middle" x="2089" y="-96.8" font-family="Times,serif" font-size="14.00">value = [4, 3]</text>
</g>
<!-- 42&#45;&gt;43 -->
<g id="edge43" class="edge"><title>42&#45;&gt;43</title>
<path fill="none" stroke="black" d="M2170.71,-192.884C2159.73,-183.62 2147.67,-173.455 2136.27,-163.845"/>
<polygon fill="black" stroke="black" points="2138.4,-161.069 2128.5,-157.299 2133.89,-166.421 2138.4,-161.069"/>
</g>
<!-- 46 -->
<g id="node47" class="node"><title>46</title>
<polygon fill="none" stroke="black" points="2470.5,-157 2189.5,-157 2189.5,-89 2470.5,-89 2470.5,-157"/>
<text text-anchor="middle" x="2330" y="-141.8" font-family="Times,serif" font-size="14.00">Benefits_Not eligible for coverage / N/A &lt;= 0.5</text>
<text text-anchor="middle" x="2330" y="-126.8" font-family="Times,serif" font-size="14.00">gini = 0.2415</text>
<text text-anchor="middle" x="2330" y="-111.8" font-family="Times,serif" font-size="14.00">samples = 121</text>
<text text-anchor="middle" x="2330" y="-96.8" font-family="Times,serif" font-size="14.00">value = [104, 17]</text>
</g>
<!-- 42&#45;&gt;46 -->
<g id="edge46" class="edge"><title>42&#45;&gt;46</title>
<path fill="none" stroke="black" d="M2248.96,-192.884C2259.86,-183.62 2271.82,-173.455 2283.12,-163.845"/>
<polygon fill="black" stroke="black" points="2285.47,-166.443 2290.82,-157.299 2280.94,-161.109 2285.47,-166.443"/>
</g>
<!-- 44 -->
<g id="node45" class="node"><title>44</title>
<polygon fill="none" stroke="black" points="2087,-53 1995,-53 1995,-0 2087,-0 2087,-53"/>
<text text-anchor="middle" x="2041" y="-37.8" font-family="Times,serif" font-size="14.00">gini = 0.0</text>
<text text-anchor="middle" x="2041" y="-22.8" font-family="Times,serif" font-size="14.00">samples = 4</text>
<text text-anchor="middle" x="2041" y="-7.8" font-family="Times,serif" font-size="14.00">value = [4, 0]</text>
</g>
<!-- 43&#45;&gt;44 -->
<g id="edge44" class="edge"><title>43&#45;&gt;44</title>
<path fill="none" stroke="black" d="M2072.21,-88.9485C2067.84,-80.3494 2063.12,-71.0586 2058.71,-62.3689"/>
<polygon fill="black" stroke="black" points="2061.72,-60.5675 2054.07,-53.2367 2055.48,-63.7376 2061.72,-60.5675"/>
</g>
<!-- 45 -->
<g id="node46" class="node"><title>45</title>
<polygon fill="none" stroke="black" points="2197,-53 2105,-53 2105,-0 2197,-0 2197,-53"/>
<text text-anchor="middle" x="2151" y="-37.8" font-family="Times,serif" font-size="14.00">gini = 0.0</text>
<text text-anchor="middle" x="2151" y="-22.8" font-family="Times,serif" font-size="14.00">samples = 3</text>
<text text-anchor="middle" x="2151" y="-7.8" font-family="Times,serif" font-size="14.00">value = [0, 3]</text>
</g>
<!-- 43&#45;&gt;45 -->
<g id="edge45" class="edge"><title>43&#45;&gt;45</title>
<path fill="none" stroke="black" d="M2110.68,-88.9485C2116.45,-80.1664 2122.68,-70.6629 2128.49,-61.815"/>
<polygon fill="black" stroke="black" points="2131.56,-63.5178 2134.11,-53.2367 2125.7,-59.6779 2131.56,-63.5178"/>
</g>
<!-- 47 -->
<g id="node48" class="node"><title>47</title>
<polygon fill="none" stroke="black" points="2329,-53 2217,-53 2217,-0 2329,-0 2329,-53"/>
<text text-anchor="middle" x="2273" y="-37.8" font-family="Times,serif" font-size="14.00">gini = 0.2235</text>
<text text-anchor="middle" x="2273" y="-22.8" font-family="Times,serif" font-size="14.00">samples = 117</text>
<text text-anchor="middle" x="2273" y="-7.8" font-family="Times,serif" font-size="14.00">value = [102, 15]</text>
</g>
<!-- 46&#45;&gt;47 -->
<g id="edge47" class="edge"><title>46&#45;&gt;47</title>
<path fill="none" stroke="black" d="M2310.06,-88.9485C2304.77,-80.1664 2299.03,-70.6629 2293.7,-61.815"/>
<polygon fill="black" stroke="black" points="2296.69,-59.9919 2288.52,-53.2367 2290.69,-63.6074 2296.69,-59.9919"/>
</g>
<!-- 48 -->
<g id="node49" class="node"><title>48</title>
<polygon fill="none" stroke="black" points="2439,-53 2347,-53 2347,-0 2439,-0 2439,-53"/>
<text text-anchor="middle" x="2393" y="-37.8" font-family="Times,serif" font-size="14.00">gini = 0.5</text>
<text text-anchor="middle" x="2393" y="-22.8" font-family="Times,serif" font-size="14.00">samples = 4</text>
<text text-anchor="middle" x="2393" y="-7.8" font-family="Times,serif" font-size="14.00">value = [2, 2]</text>
</g>
<!-- 46&#45;&gt;48 -->
<g id="edge48" class="edge"><title>46&#45;&gt;48</title>
<path fill="none" stroke="black" d="M2352.03,-88.9485C2357.89,-80.1664 2364.22,-70.6629 2370.12,-61.815"/>
<polygon fill="black" stroke="black" points="2373.21,-63.4987 2375.84,-53.2367 2367.38,-59.6158 2373.21,-63.4987"/>
</g>
<!-- 50 -->
<g id="node51" class="node"><title>50</title>
<polygon fill="none" stroke="black" points="2619.5,-157 2488.5,-157 2488.5,-89 2619.5,-89 2619.5,-157"/>
<text text-anchor="middle" x="2554" y="-141.8" font-family="Times,serif" font-size="14.00">Benefits_Yes &lt;= 0.5</text>
<text text-anchor="middle" x="2554" y="-126.8" font-family="Times,serif" font-size="14.00">gini = 0.375</text>
<text text-anchor="middle" x="2554" y="-111.8" font-family="Times,serif" font-size="14.00">samples = 20</text>
<text text-anchor="middle" x="2554" y="-96.8" font-family="Times,serif" font-size="14.00">value = [15, 5]</text>
</g>
<!-- 49&#45;&gt;50 -->
<g id="edge50" class="edge"><title>49&#45;&gt;50</title>
<path fill="none" stroke="black" d="M2554,-192.884C2554,-184.778 2554,-175.982 2554,-167.472"/>
<polygon fill="black" stroke="black" points="2557.5,-167.299 2554,-157.299 2550.5,-167.299 2557.5,-167.299"/>
</g>
<!-- 53 -->
<g id="node54" class="node"><title>53</title>
<polygon fill="none" stroke="black" points="2830,-157 2638,-157 2638,-89 2830,-89 2830,-157"/>
<text text-anchor="middle" x="2734" y="-141.8" font-family="Times,serif" font-size="14.00">KnowBen_I am not sure &lt;= 0.5</text>
<text text-anchor="middle" x="2734" y="-126.8" font-family="Times,serif" font-size="14.00">gini = 0.375</text>
<text text-anchor="middle" x="2734" y="-111.8" font-family="Times,serif" font-size="14.00">samples = 4</text>
<text text-anchor="middle" x="2734" y="-96.8" font-family="Times,serif" font-size="14.00">value = [1, 3]</text>
</g>
<!-- 49&#45;&gt;53 -->
<g id="edge53" class="edge"><title>49&#45;&gt;53</title>
<path fill="none" stroke="black" d="M2612.44,-192.884C2629.66,-183.125 2648.65,-172.366 2666.39,-162.31"/>
<polygon fill="black" stroke="black" points="2668.57,-165.1 2675.54,-157.125 2665.12,-159.01 2668.57,-165.1"/>
</g>
<!-- 51 -->
<g id="node52" class="node"><title>51</title>
<polygon fill="none" stroke="black" points="2552,-53 2460,-53 2460,-0 2552,-0 2552,-53"/>
<text text-anchor="middle" x="2506" y="-37.8" font-family="Times,serif" font-size="14.00">gini = 0.0</text>
<text text-anchor="middle" x="2506" y="-22.8" font-family="Times,serif" font-size="14.00">samples = 7</text>
<text text-anchor="middle" x="2506" y="-7.8" font-family="Times,serif" font-size="14.00">value = [7, 0]</text>
</g>
<!-- 50&#45;&gt;51 -->
<g id="edge51" class="edge"><title>50&#45;&gt;51</title>
<path fill="none" stroke="black" d="M2537.21,-88.9485C2532.84,-80.3494 2528.12,-71.0586 2523.71,-62.3689"/>
<polygon fill="black" stroke="black" points="2526.72,-60.5675 2519.07,-53.2367 2520.48,-63.7376 2526.72,-60.5675"/>
</g>
<!-- 52 -->
<g id="node53" class="node"><title>52</title>
<polygon fill="none" stroke="black" points="2662,-53 2570,-53 2570,-0 2662,-0 2662,-53"/>
<text text-anchor="middle" x="2616" y="-37.8" font-family="Times,serif" font-size="14.00">gini = 0.4734</text>
<text text-anchor="middle" x="2616" y="-22.8" font-family="Times,serif" font-size="14.00">samples = 13</text>
<text text-anchor="middle" x="2616" y="-7.8" font-family="Times,serif" font-size="14.00">value = [8, 5]</text>
</g>
<!-- 50&#45;&gt;52 -->
<g id="edge52" class="edge"><title>50&#45;&gt;52</title>
<path fill="none" stroke="black" d="M2575.68,-88.9485C2581.45,-80.1664 2587.68,-70.6629 2593.49,-61.815"/>
<polygon fill="black" stroke="black" points="2596.56,-63.5178 2599.11,-53.2367 2590.7,-59.6779 2596.56,-63.5178"/>
</g>
<!-- 54 -->
<g id="node55" class="node"><title>54</title>
<polygon fill="none" stroke="black" points="2779,-53 2687,-53 2687,-0 2779,-0 2779,-53"/>
<text text-anchor="middle" x="2733" y="-37.8" font-family="Times,serif" font-size="14.00">gini = 0.0</text>
<text text-anchor="middle" x="2733" y="-22.8" font-family="Times,serif" font-size="14.00">samples = 3</text>
<text text-anchor="middle" x="2733" y="-7.8" font-family="Times,serif" font-size="14.00">value = [0, 3]</text>
</g>
<!-- 53&#45;&gt;54 -->
<g id="edge54" class="edge"><title>53&#45;&gt;54</title>
<path fill="none" stroke="black" d="M2733.65,-88.9485C2733.56,-80.7153 2733.47,-71.848 2733.38,-63.4814"/>
<polygon fill="black" stroke="black" points="2736.88,-63.1991 2733.27,-53.2367 2729.88,-63.2732 2736.88,-63.1991"/>
</g>
<!-- 55 -->
<g id="node56" class="node"><title>55</title>
<polygon fill="none" stroke="black" points="2889,-53 2797,-53 2797,-0 2889,-0 2889,-53"/>
<text text-anchor="middle" x="2843" y="-37.8" font-family="Times,serif" font-size="14.00">gini = 0.0</text>
<text text-anchor="middle" x="2843" y="-22.8" font-family="Times,serif" font-size="14.00">samples = 1</text>
<text text-anchor="middle" x="2843" y="-7.8" font-family="Times,serif" font-size="14.00">value = [1, 0]</text>
</g>
<!-- 53&#45;&gt;55 -->
<g id="edge55" class="edge"><title>53&#45;&gt;55</title>
<path fill="none" stroke="black" d="M2772.12,-88.9485C2782.99,-79.526 2794.82,-69.2731 2805.64,-59.8906"/>
<polygon fill="black" stroke="black" points="2808.05,-62.4319 2813.31,-53.2367 2803.47,-57.1428 2808.05,-62.4319"/>
</g>
</g>
</svg>
