<?xml version="1.0" encoding="UTF-8" standalone="no"?>
<!DOCTYPE svg PUBLIC "-//W3C//DTD SVG 1.1//EN"
 "http://www.w3.org/Graphics/SVG/1.1/DTD/svg11.dtd">
<!-- Generated by graphviz version 2.38.0 (20140413.2041)
 -->
<!-- Title: Tree Pages: 1 -->
<svg width="823pt" height="373pt"
 viewBox="0.00 0.00 822.50 373.00" xmlns="http://www.w3.org/2000/svg" xmlns:xlink="http://www.w3.org/1999/xlink">
<g id="graph0" class="graph" transform="scale(1 1) rotate(0) translate(4 369)">
<title>Tree</title>
<polygon fill="white" stroke="none" points="-4,4 -4,-369 818.5,-369 818.5,4 -4,4"/>
<!-- 0 -->
<g id="node1" class="node"><title>0</title>
<polygon fill="none" stroke="black" points="572,-365 433,-365 433,-297 572,-297 572,-365"/>
<text text-anchor="middle" x="502.5" y="-349.8" font-family="Times,serif" font-size="14.00">Diagnosed_No &lt;= 0.5</text>
<text text-anchor="middle" x="502.5" y="-334.8" font-family="Times,serif" font-size="14.00">gini = 0.3939</text>
<text text-anchor="middle" x="502.5" y="-319.8" font-family="Times,serif" font-size="14.00">samples = 356</text>
<text text-anchor="middle" x="502.5" y="-304.8" font-family="Times,serif" font-size="14.00">value = [260, 96]</text>
</g>
<!-- 1 -->
<g id="node2" class="node"><title>1</title>
<polygon fill="none" stroke="black" points="465.5,-261 307.5,-261 307.5,-193 465.5,-193 465.5,-261"/>
<text text-anchor="middle" x="386.5" y="-245.8" font-family="Times,serif" font-size="14.00">ResourcesBen_No &lt;= 0.5</text>
<text text-anchor="middle" x="386.5" y="-230.8" font-family="Times,serif" font-size="14.00">gini = 0.1827</text>
<text text-anchor="middle" x="386.5" y="-215.8" font-family="Times,serif" font-size="14.00">samples = 59</text>
<text text-anchor="middle" x="386.5" y="-200.8" font-family="Times,serif" font-size="14.00">value = [6, 53]</text>
</g>
<!-- 0&#45;&gt;1 -->
<g id="edge1" class="edge"><title>0&#45;&gt;1</title>
<path fill="none" stroke="black" d="M464.838,-296.884C454.404,-287.709 442.965,-277.65 432.13,-268.123"/>
<polygon fill="black" stroke="black" points="434.191,-265.274 424.37,-261.299 429.568,-270.531 434.191,-265.274"/>
<text text-anchor="middle" x="425.972" y="-282.548" font-family="Times,serif" font-size="14.00">True</text>
</g>
<!-- 8 -->
<g id="node9" class="node"><title>8</title>
<polygon fill="none" stroke="black" points="716,-261 521,-261 521,-193 716,-193 716,-261"/>
<text text-anchor="middle" x="618.5" y="-245.8" font-family="Times,serif" font-size="14.00">NegMental_Yes, they do &lt;= 0.5</text>
<text text-anchor="middle" x="618.5" y="-230.8" font-family="Times,serif" font-size="14.00">gini = 0.2476</text>
<text text-anchor="middle" x="618.5" y="-215.8" font-family="Times,serif" font-size="14.00">samples = 297</text>
<text text-anchor="middle" x="618.5" y="-200.8" font-family="Times,serif" font-size="14.00">value = [254, 43]</text>
</g>
<!-- 0&#45;&gt;8 -->
<g id="edge8" class="edge"><title>0&#45;&gt;8</title>
<path fill="none" stroke="black" d="M540.162,-296.884C550.596,-287.709 562.035,-277.65 572.87,-268.123"/>
<polygon fill="black" stroke="black" points="575.432,-270.531 580.63,-261.299 570.809,-265.274 575.432,-270.531"/>
<text text-anchor="middle" x="579.028" y="-282.548" font-family="Times,serif" font-size="14.00">False</text>
</g>
<!-- 2 -->
<g id="node3" class="node"><title>2</title>
<polygon fill="none" stroke="black" points="241,-157 1.42109e-14,-157 1.42109e-14,-89 241,-89 241,-157"/>
<text text-anchor="middle" x="120.5" y="-141.8" font-family="Times,serif" font-size="14.00">NegResponse_Yes, I experienced &lt;= 0.5</text>
<text text-anchor="middle" x="120.5" y="-126.8" font-family="Times,serif" font-size="14.00">gini = 0.0555</text>
<text text-anchor="middle" x="120.5" y="-111.8" font-family="Times,serif" font-size="14.00">samples = 35</text>
<text text-anchor="middle" x="120.5" y="-96.8" font-family="Times,serif" font-size="14.00">value = [1, 34]</text>
</g>
<!-- 1&#45;&gt;2 -->
<g id="edge2" class="edge"><title>1&#45;&gt;2</title>
<path fill="none" stroke="black" d="M307.411,-195.673C278.806,-184.704 246.197,-172.199 216.311,-160.739"/>
<polygon fill="black" stroke="black" points="217.302,-157.371 206.712,-157.059 214.796,-163.907 217.302,-157.371"/>
</g>
<!-- 5 -->
<g id="node6" class="node"><title>5</title>
<polygon fill="none" stroke="black" points="514,-157 259,-157 259,-89 514,-89 514,-157"/>
<text text-anchor="middle" x="386.5" y="-141.8" font-family="Times,serif" font-size="14.00">NegMental_Yes, I think they would &lt;= 0.5</text>
<text text-anchor="middle" x="386.5" y="-126.8" font-family="Times,serif" font-size="14.00">gini = 0.3299</text>
<text text-anchor="middle" x="386.5" y="-111.8" font-family="Times,serif" font-size="14.00">samples = 24</text>
<text text-anchor="middle" x="386.5" y="-96.8" font-family="Times,serif" font-size="14.00">value = [5, 19]</text>
</g>
<!-- 1&#45;&gt;5 -->
<g id="edge5" class="edge"><title>1&#45;&gt;5</title>
<path fill="none" stroke="black" d="M386.5,-192.884C386.5,-184.778 386.5,-175.982 386.5,-167.472"/>
<polygon fill="black" stroke="black" points="390,-167.299 386.5,-157.299 383,-167.299 390,-167.299"/>
</g>
<!-- 3 -->
<g id="node4" class="node"><title>3</title>
<polygon fill="none" stroke="black" points="133.5,-53 35.5,-53 35.5,-0 133.5,-0 133.5,-53"/>
<text text-anchor="middle" x="84.5" y="-37.8" font-family="Times,serif" font-size="14.00">gini = 0.0</text>
<text text-anchor="middle" x="84.5" y="-22.8" font-family="Times,serif" font-size="14.00">samples = 31</text>
<text text-anchor="middle" x="84.5" y="-7.8" font-family="Times,serif" font-size="14.00">value = [0, 31]</text>
</g>
<!-- 2&#45;&gt;3 -->
<g id="edge3" class="edge"><title>2&#45;&gt;3</title>
<path fill="none" stroke="black" d="M107.909,-88.9485C104.668,-80.4408 101.169,-71.2562 97.8891,-62.6464"/>
<polygon fill="black" stroke="black" points="101.135,-61.3356 94.3045,-53.2367 94.5938,-63.8276 101.135,-61.3356"/>
</g>
<!-- 4 -->
<g id="node5" class="node"><title>4</title>
<polygon fill="none" stroke="black" points="243.5,-53 151.5,-53 151.5,-0 243.5,-0 243.5,-53"/>
<text text-anchor="middle" x="197.5" y="-37.8" font-family="Times,serif" font-size="14.00">gini = 0.375</text>
<text text-anchor="middle" x="197.5" y="-22.8" font-family="Times,serif" font-size="14.00">samples = 4</text>
<text text-anchor="middle" x="197.5" y="-7.8" font-family="Times,serif" font-size="14.00">value = [1, 3]</text>
</g>
<!-- 2&#45;&gt;4 -->
<g id="edge4" class="edge"><title>2&#45;&gt;4</title>
<path fill="none" stroke="black" d="M147.431,-88.9485C154.736,-79.9834 162.653,-70.2666 169.989,-61.2629"/>
<polygon fill="black" stroke="black" points="172.926,-63.1999 176.529,-53.2367 167.499,-58.7782 172.926,-63.1999"/>
</g>
<!-- 6 -->
<g id="node7" class="node"><title>6</title>
<polygon fill="none" stroke="black" points="396.5,-53 298.5,-53 298.5,-0 396.5,-0 396.5,-53"/>
<text text-anchor="middle" x="347.5" y="-37.8" font-family="Times,serif" font-size="14.00">gini = 0.2076</text>
<text text-anchor="middle" x="347.5" y="-22.8" font-family="Times,serif" font-size="14.00">samples = 17</text>
<text text-anchor="middle" x="347.5" y="-7.8" font-family="Times,serif" font-size="14.00">value = [2, 15]</text>
</g>
<!-- 5&#45;&gt;6 -->
<g id="edge6" class="edge"><title>5&#45;&gt;6</title>
<path fill="none" stroke="black" d="M372.86,-88.9485C369.349,-80.4408 365.558,-71.2562 362.005,-62.6464"/>
<polygon fill="black" stroke="black" points="365.172,-61.1452 358.121,-53.2367 358.701,-63.8157 365.172,-61.1452"/>
</g>
<!-- 7 -->
<g id="node8" class="node"><title>7</title>
<polygon fill="none" stroke="black" points="506.5,-53 414.5,-53 414.5,-0 506.5,-0 506.5,-53"/>
<text text-anchor="middle" x="460.5" y="-37.8" font-family="Times,serif" font-size="14.00">gini = 0.4898</text>
<text text-anchor="middle" x="460.5" y="-22.8" font-family="Times,serif" font-size="14.00">samples = 7</text>
<text text-anchor="middle" x="460.5" y="-7.8" font-family="Times,serif" font-size="14.00">value = [3, 4]</text>
</g>
<!-- 5&#45;&gt;7 -->
<g id="edge7" class="edge"><title>5&#45;&gt;7</title>
<path fill="none" stroke="black" d="M412.382,-88.9485C419.402,-79.9834 427.011,-70.2666 434.061,-61.2629"/>
<polygon fill="black" stroke="black" points="436.937,-63.2679 440.346,-53.2367 431.425,-58.9521 436.937,-63.2679"/>
</g>
<!-- 9 -->
<g id="node10" class="node"><title>9</title>
<polygon fill="none" stroke="black" points="704.5,-157 532.5,-157 532.5,-89 704.5,-89 704.5,-157"/>
<text text-anchor="middle" x="618.5" y="-141.8" font-family="Times,serif" font-size="14.00">MentalInterview_No &lt;= 0.5</text>
<text text-anchor="middle" x="618.5" y="-126.8" font-family="Times,serif" font-size="14.00">gini = 0.2393</text>
<text text-anchor="middle" x="618.5" y="-111.8" font-family="Times,serif" font-size="14.00">samples = 295</text>
<text text-anchor="middle" x="618.5" y="-96.8" font-family="Times,serif" font-size="14.00">value = [254, 41]</text>
</g>
<!-- 8&#45;&gt;9 -->
<g id="edge9" class="edge"><title>8&#45;&gt;9</title>
<path fill="none" stroke="black" d="M618.5,-192.884C618.5,-184.778 618.5,-175.982 618.5,-167.472"/>
<polygon fill="black" stroke="black" points="622,-167.299 618.5,-157.299 615,-167.299 622,-167.299"/>
</g>
<!-- 12 -->
<g id="node13" class="node"><title>12</title>
<polygon fill="none" stroke="black" points="814.5,-149.5 722.5,-149.5 722.5,-96.5 814.5,-96.5 814.5,-149.5"/>
<text text-anchor="middle" x="768.5" y="-134.3" font-family="Times,serif" font-size="14.00">gini = 0.0</text>
<text text-anchor="middle" x="768.5" y="-119.3" font-family="Times,serif" font-size="14.00">samples = 2</text>
<text text-anchor="middle" x="768.5" y="-104.3" font-family="Times,serif" font-size="14.00">value = [0, 2]</text>
</g>
<!-- 8&#45;&gt;12 -->
<g id="edge12" class="edge"><title>8&#45;&gt;12</title>
<path fill="none" stroke="black" d="M667.201,-192.884C684.991,-180.786 705.043,-167.151 722.583,-155.224"/>
<polygon fill="black" stroke="black" points="724.67,-158.037 730.971,-149.52 720.733,-152.249 724.67,-158.037"/>
</g>
<!-- 10 -->
<g id="node11" class="node"><title>10</title>
<polygon fill="none" stroke="black" points="655.5,-53 543.5,-53 543.5,-0 655.5,-0 655.5,-53"/>
<text text-anchor="middle" x="599.5" y="-37.8" font-family="Times,serif" font-size="14.00">gini = 0.1653</text>
<text text-anchor="middle" x="599.5" y="-22.8" font-family="Times,serif" font-size="14.00">samples = 143</text>
<text text-anchor="middle" x="599.5" y="-7.8" font-family="Times,serif" font-size="14.00">value = [130, 13]</text>
</g>
<!-- 9&#45;&gt;10 -->
<g id="edge10" class="edge"><title>9&#45;&gt;10</title>
<path fill="none" stroke="black" d="M611.855,-88.9485C610.181,-80.6238 608.377,-71.6509 606.678,-63.2027"/>
<polygon fill="black" stroke="black" points="610.077,-62.3506 604.675,-53.2367 603.214,-63.7304 610.077,-62.3506"/>
</g>
<!-- 11 -->
<g id="node12" class="node"><title>11</title>
<polygon fill="none" stroke="black" points="785.5,-53 673.5,-53 673.5,-0 785.5,-0 785.5,-53"/>
<text text-anchor="middle" x="729.5" y="-37.8" font-family="Times,serif" font-size="14.00">gini = 0.3006</text>
<text text-anchor="middle" x="729.5" y="-22.8" font-family="Times,serif" font-size="14.00">samples = 152</text>
<text text-anchor="middle" x="729.5" y="-7.8" font-family="Times,serif" font-size="14.00">value = [124, 28]</text>
</g>
<!-- 9&#45;&gt;11 -->
<g id="edge11" class="edge"><title>9&#45;&gt;11</title>
<path fill="none" stroke="black" d="M657.322,-88.9485C668.39,-79.526 680.433,-69.2731 691.454,-59.8906"/>
<polygon fill="black" stroke="black" points="693.924,-62.3842 699.27,-53.2367 689.386,-57.0542 693.924,-62.3842"/>
</g>
</g>
</svg>
